<svg id="svg2" xmlns="http://www.w3.org/2000/svg" viewBox="0 0 2138.02 1183.01">
    <title>svg2.three</title>
    <g id="svg_f_2" data-name="svg f 2">
        <g id="Path-2">
            <polygon id="path-1"
                     points="8 1175.01 2130.02 1175.01 2130.02 870.13 2002.38 870.13 2002.38 832.57 1808.23 832.57 1808.23 8 813.81 8 813.81 643.03 673.88 643.03 673.88 709.01 514.45 709.01 514.45 278.97 354.03 278.97 354.03 53 8 53 8 1175.01"
                     fill="#fff"/>
            <path d="M368,240H528.45V670H679.88V604H819.81V-31H1822.23V793.57h194.15v37.56H2144V1144H14V14H368Z"
                  transform="translate(-10 35)" fill="none" stroke="#d1bdb8" stroke-width="8"/>
        </g>
        <g id="seat_f_2ksj2" data-name="seat f 2ksj2">
            <rect id="Rectangle-11" x="1629" y="1016" width="20" height="20" fill="#fff"/>
        </g>
        <g id="seat_f_2_d_ksj2" data-name="seat f 2 d ksj2">
            <polygon id="Rectangle-29-Copy-54" points="1666 1027 1741 1027 1741 1173 1666 1173 1666 1027" fill="#fbd3da"
                     stroke="#f0b9c2" stroke-width="4"/>
            <path id="开-水-间"
                  d="M1705.46,1029h15.84v2h-3.14v4.6h4.14v2h-4.14v8.58h-2.1v-8.58h-5.18a16.88,16.88,0,0,1-1.18,5,8.12,8.12,0,0,1-3.84,3.88l-1.14-1.78a7.22,7.22,0,0,0,3.26-3.52,16,16,0,0,0,.78-3.54h-4.32v-2h4.46c0-.12,0-.22,0-.34V1031h-3.46Zm5.58,2v4.26c0,.12,0,.22,0,.34h5V1031Zm-6.36,29.84h6.64v1.64a16.36,16.36,0,0,1-6,10.08l-1.32-1.72a14.32,14.32,0,0,0,5.26-8h-4.58ZM1720,1059l1.68,1.26a30.67,30.67,0,0,1-4.7,4.7,19.93,19.93,0,0,0,5.84,5.94l-1.3,1.92a25.56,25.56,0,0,1-6.9-8.42v7.8q0,2.22-2,2.22h-2.66l-.46-2c.84.08,1.64.14,2.4.14.42,0,.64-.3.64-.86V1056h2.12v4.16a23.66,23.66,0,0,0,1.4,3.22A27.5,27.5,0,0,0,1720,1059Zm-10.74,30.26h8.12v9.8h-8.12Zm6.18,8v-2.16h-4.22v2.16Zm-4.22-4h4.22v-2.16h-4.22Zm8.1,9.08h-1.6l-.56-2,1.74.06c.5,0,.76-.36.76-1.06v-12.64h-7.44v-1.92h9.48V1100A2.11,2.11,0,0,1,1719.28,1102.34Zm-14.26-15h2v15.2h-2Zm3.54-3.54a20.27,20.27,0,0,1,2.42,3.56l-1.88,1a21.37,21.37,0,0,0-2.44-3.68Z"
                  transform="translate(-10 35)" fill="#c3717f"/>
        </g>
        <g id="seat_f_2_d_mz3" data-name="seat f 2 d mz3">
            <polygon id="Rectangle-29-Copy-61" points="816 35 1806 35 1806 710 816 710 816 35" fill="#eaeefb"
                     stroke="#dbdee7" stroke-width="4"/>
            <path id="门诊二楼"
                  d="M1279,355.84h-3.2l-1.12-3.92,3.48.12c1,0,1.52-.72,1.52-2.12V324.64h-14.88V320.8h19v30.28C1283.75,354.24,1282.15,355.84,1279,355.84Zm-28.52-30h4.08v30.4h-4.08Zm7.08-7.08a40.53,40.53,0,0,1,4.84,7.12l-3.76,2a42.74,42.74,0,0,0-4.88-7.36Zm53.37,10,3.08,2.32c-2.88,4-7.08,6.8-12.64,8.56l-1.64-3.64C1304.68,334.52,1308.44,332.12,1310.92,328.76Zm4.52,5,3,2.36q-5.4,7.68-16.2,11l-1.72-3.76Q1310.46,340.4,1315.44,333.76Zm4.16,5.44,3.28,2.52c-5,6.84-12.24,11.76-21.92,14.8l-1.8-4Q1312.78,348.46,1319.6,339.2Zm-28.4-19.76a52.48,52.48,0,0,1,6.48,5.8l-2.88,2.92a37.63,37.63,0,0,0-6.52-5.88ZM1285.52,331H1295V347.4c1-.92,2.08-2,3.2-3.08l1.16,4.36a59,59,0,0,1-7.84,6.4l-1.6-3.76a3.15,3.15,0,0,0,1-2.36V335h-5.48ZM1308.64,319h3a39.64,39.64,0,0,0,11.52,11.56l-2,3.64a38.79,38.79,0,0,1-11-11,40.75,40.75,0,0,1-11.48,11.32l-2-3.68A42.82,42.82,0,0,0,1308.64,319Zm18,4.08h28.72v4.12h-28.72Zm-3.72,25.16H1359v4.2h-36.12Zm55.64-29a32.83,32.83,0,0,1,2.72,5.28l-3.48,1.56a35.78,35.78,0,0,0-2.84-5.68Zm8.16,11.12v7h-4v-7.08a24.18,24.18,0,0,1-7.76,8l-2.24-3.2a22.38,22.38,0,0,0,6.36-4.84h-5v-3.8h8.64V319.2h4v7.32h8.52v3.8h-5.16a21.14,21.14,0,0,0,6.68,4.92l-2.48,3.16A24,24,0,0,1,1386.72,330.4Zm4.36-11.24,3.36,1.64a27.24,27.24,0,0,1-3.2,5.44l-3.12-1.64A29.26,29.26,0,0,0,1391.08,319.16Zm-10.2,18.36,4.08.48-.84,2h12.24v3.72h-4a14,14,0,0,1-3,6c2.56,1,5,2.16,7.36,3.36l-2.28,3.32a81.31,81.31,0,0,0-8.12-4c-2.64,1.68-6.6,3-11.92,4l-1.56-3.64a39.9,39.9,0,0,0,8.92-2.36c-1.92-.8-4-1.6-6.16-2.4,1-1.48,1.8-2.92,2.52-4.28h-5.16V340h7C1380.24,339.16,1380.56,338.32,1380.88,337.52Zm7.56,6.24h-6.28c-.56.92-1.12,1.8-1.72,2.64q2.58.84,5,1.8A10.73,10.73,0,0,0,1388.44,343.76Zm-19.56-6.8V356h-4V337.76a50.44,50.44,0,0,1-4.08,9l-1.84-4.64a33.45,33.45,0,0,0,5.76-11.72h-4.68v-3.88h4.84v-7.4h4v7.4H1373v3.88h-4.12v2c1.52,1.64,3,3.44,4.6,5.36l-2.2,3.28C1370.36,339.44,1369.56,338.08,1368.88,337Z"
                  transform="translate(-10 35)" fill="#a8adbe"/>
        </g>
        <path id="Line-6" d="M1257,838h186.69" transform="translate(-10 35)" fill="none" stroke="#f0b9c2"
              stroke-linecap="square" stroke-width="4"/>
        <g id="seat_f_2zls2" data-name="seat f 2zls2">
            <rect id="Rectangle-11-2" data-name="Rectangle-11" x="1209" y="978" width="20" height="20" fill="#fff"/>
        </g>
        <g id="seat_f_2_d_zls2" data-name="seat f 2 d zls2">
            <rect id="Rectangle-29-Copy-67" x="1188" y="873" width="58" height="112" fill="#f3e6e5" stroke="#ecd5d4"
                  stroke-width="4"/>
            <path id="治-疗-室"
                  d="M1220.9,856.74a26.78,26.78,0,0,1,3.66,3l-1.52,1.52a21.66,21.66,0,0,0-3.62-3.12Zm-.62,4.7a22.49,22.49,0,0,1,3.42,3l-1.52,1.52a20.49,20.49,0,0,0-3.32-3.1Zm2.12,5.64,1.88.78a61.41,61.41,0,0,1-3,7.06l-2.06-.92A60.11,60.11,0,0,0,1222.4,867.08Zm13.16-.86v8.88h-2V874h-6v1.08h-2v-8.88Zm-8,5.84h6v-3.94h-6Zm6.18-13.26a53,53,0,0,1,3.4,5.74l-2,1c-.24-.52-.48-1-.72-1.48-2.9.38-6.12.66-9.68.86l-.36-1.88c1-.2,2.56-2.38,4.54-6.5l2.1.72a41.16,41.16,0,0,1-3.6,5.68c2.06-.14,4.08-.34,6.06-.62-.54-.92-1.08-1.8-1.62-2.6Zm-8.58,30.64h10.76v2a29.53,29.53,0,0,1-4.06,3.32v6.18a2,2,0,0,1-2.24,2.16h-2.5l-.5-1.84c.68,0,1.4.06,2.18.06a.89.89,0,0,0,1-1v-6.54a23.07,23.07,0,0,0,3.36-2.34h-8Zm-3.26,3.92c0-.22,0-.42,0-.6v-1l-1.52.68a26.21,26.21,0,0,0-1.68-3.86l1.7-.7a24.16,24.16,0,0,1,1.5,3.44V886h6.64a10.06,10.06,0,0,0-.54-1.24l2.14-.36c.16.48.3,1,.46,1.6h6.1v2H1224v4.76q-.12,6.39-2.56,10.24l-1.6-1.42a14.25,14.25,0,0,0,1.88-5.92,22.89,22.89,0,0,1-2.46,1.8l-.62-2A23.24,23.24,0,0,0,1221.86,893.36Zm-.66,25.16h-1.86v-4.28h7.5a12.91,12.91,0,0,0-.9-1.46l2.36-.4c.28.56.56,1.18.82,1.86h7.54v4.28h-1.86v.92H1232a29.35,29.35,0,0,1,3.58,3.36l-1.54,1.56a14.64,14.64,0,0,0-1.16-1.44c-1.24.1-2.5.2-3.78.28v1.68h6.14v1.94h-6.14v1.84h7.7v1.94h-17.52v-1.94h7.7v-1.84h-6.1v-1.94h6.1v-1.54c-1.76.1-3.56.2-5.4.28l-.48-1.8a2,2,0,0,0,.44-.18,8.79,8.79,0,0,0,2.44-2.2h-2.74Zm5.14.92a19,19,0,0,1-1.92,2.32c2.3-.1,4.6-.24,6.88-.42l-1.2-1.08.84-.82Zm8.2-1.88V916.2h-13.08v1.36Z"
                  transform="translate(-10 35)" fill="#be7a75"/>
        </g>
        <path id="Line-4" d="M826,765v81.3" transform="translate(-10 35)" fill="none" stroke="#dbdee7"
              stroke-linecap="square" stroke-width="4"/>
        <path id="Line-4-2" data-name="Line-4" d="M1658,765v81.3" transform="translate(-10 35)" fill="none"
              stroke="#dbdee7" stroke-linecap="square" stroke-width="4"/>
        <polygon id="Rectangle-8-Copy-56" points="314 885 388 885 388 983 314 983 314 885" fill="#eaeefb"
                 stroke="#dbdee7" stroke-width="4"/>
        <path id="Line-3" d="M191,98h92" transform="translate(-10 35)" fill="none" stroke="#c0d0ed"
              stroke-linecap="square" stroke-width="4"/>
        <path id="Line-2" d="M365,754h36" transform="translate(-10 35)" fill="none" stroke="#c0d0ed"
              stroke-linecap="square" stroke-width="4"/>
        <path id="Line-2-Copy-2" d="M394,838v15" transform="translate(-10 35)" fill="none" stroke="#c0d0ed"
              stroke-linecap="square" stroke-width="4"/>
        <path id="Line-2-Copy-3" d="M394,769v15" transform="translate(-10 35)" fill="none" stroke="#c0d0ed"
              stroke-linecap="square" stroke-width="4"/>
        <polygon id="Rectangle-29-Copy-42" points="242 133 352 133 352 277 242 277 242 133" fill="#eaeefb"
                 stroke="#dbdee7" stroke-width="4"/>
        <polygon id="Rectangle-29-Copy-76" points="676 885 746 885 746 983 676 983 676 885" fill="#eaeefb"
                 stroke="#dbdee7" stroke-width="4"/>
        <g id="seat_f_2sbj" data-name="seat f 2sbj">
            <rect id="Rectangle-11-3" data-name="Rectangle-11" x="946" y="973" width="20" height="20" fill="#fff"/>
        </g>
        <g id="seat_f_2_d_sbj" data-name="seat f 2 d sbj">
            <polygon id="Rectangle-29-Copy-77" points="918 873 993 873 993 985 918 985 918 873" fill="#f3e6e5"
                     stroke="#ecd5d4" stroke-width="4"/>
            <path id="设-备-间"
                  d="M959.44,856.84a23.56,23.56,0,0,1,3.24,2.88l-1.42,1.44a20.21,20.21,0,0,0-3.24-3Zm-2.66,5.68h4.62v8.3c.58-.52,1.2-1.08,1.86-1.7l.58,2.2a32.49,32.49,0,0,1-4.2,3.22l-.8-1.88a1.45,1.45,0,0,0,.52-1.12v-7h-2.58Zm7.16,2.4h9.76v1.9a11,11,0,0,1-2.76,4.48,21.17,21.17,0,0,0,4.52,2.12l-1.12,1.8a22.71,22.71,0,0,1-4.94-2.66,19.06,19.06,0,0,1-5.74,2.64l-1.16-1.76a20.16,20.16,0,0,0,5.24-2.28,10.25,10.25,0,0,1-2.66-4.24h-1.14Zm3.1,2a7.92,7.92,0,0,0,2.2,3.1,10,10,0,0,0,2.36-3.1Zm-1.74-9.74h7.2v4.14c0,.44.24.68.74.68H975v1.9h-2.28c-1.5,0-2.24-.7-2.24-2.1v-2.66h-3.08v.54a5.28,5.28,0,0,1-3.2,4.82l-1.4-1.6c1.68-.7,2.54-1.7,2.54-3Zm6.8,36.88a26.24,26.24,0,0,1-6-2,29.38,29.38,0,0,1-5.66,2Zm-4-3.14a31.91,31.91,0,0,0,7.16,1.7l-.9,1.84-1.76-.3v8.92h-2v-.7h-9.16v.7h-2v-8.8l-1.78.34-.9-1.84a29.68,29.68,0,0,0,7.32-1.84,15.16,15.16,0,0,1-2.54-2,19.68,19.68,0,0,1-2.6,2l-1.34-1.62a17,17,0,0,0,5.38-4.94l2.06.46-.68,1h7.74v1.58A17.67,17.67,0,0,1,968.08,890.92Zm-5.28-3.2a14,14,0,0,0,3.26,2.3,17.83,17.83,0,0,0,3.4-2.4H962.9Zm-1.36,12.9H965V899h-3.58Zm5.54,0h3.62V899H967Zm-5.54-3.26H965v-1.58h-3.58Zm5.54-1.58v1.58h3.62v-1.58Zm-5.12,22.06H970v9.8h-8.12Zm6.18,8v-2.16h-4.22v2.16Zm-4.22-4H968v-2.16h-4.22Zm8.1,9.08h-1.6l-.56-2,1.74.06c.5,0,.76-.36.76-1.06V915.32h-7.44V913.4h9.48v15.14A2.11,2.11,0,0,1,971.92,930.92Zm-14.26-15h2v15.2h-2Zm3.54-3.54a20.27,20.27,0,0,1,2.42,3.56l-1.88,1a21.37,21.37,0,0,0-2.44-3.68Z"
                  transform="translate(-10 35)" fill="#be7a75"/>
        </g>
        <g id="seat_f_2zbs" data-name="seat f 2zbs">
            <rect id="Rectangle-11-4" data-name="Rectangle-11" x="1589" y="975" width="20" height="20" fill="#fff"/>
        </g>
        <g id="seat_f_2_d_zbs" data-name="seat f 2 d zbs">
            <rect id="Rectangle-29-Copy-69" x="1554" y="873" width="94" height="112" fill="#f3e6e5" stroke="#ecd5d4"
                  stroke-width="4"/>
            <path id="值班"
                  d="M1603,884.46l2.08.28-.12,1.52h4.68v1.88h-4.9l-.18,1.2h3.86v11.3h1.8v1.92H1597v-1.92h2v-11.3h3.56l.18-1.2h-4.84v-1.88h5C1602.9,885.64,1603,885,1603,884.46Zm-2.1,16.18h5.54v-1.16h-5.54Zm0-2.8h5.54v-1.12h-5.54Zm0-2.76h5.54V894h-5.54Zm0-2.76h5.54v-1.1h-5.54Zm-6.64.08c-.56.76-1.14,1.52-1.78,2.24l-.68-2.24a22.09,22.09,0,0,0,4-7.92l1.88.88a26.52,26.52,0,0,1-1.38,3.58v14.18h-2Zm17.76-6.52h6v1.94h-1.9v4.44h1.62v1.92h-1.62v4.46q1.08-.45,2.16-1v2.08a43.16,43.16,0,0,1-6.06,2.18l-.52-2a24.37,24.37,0,0,0,2.38-.6v-5.16h-1.9v-1.92h1.9v-4.44H1612Zm6.56,2.08h1.88v1.94c0,3-.44,5.12-1.28,6.52l-1.46-1.3a12.26,12.26,0,0,0,.86-5.22Zm2.64-3.4h2v9q-.09,6.48-4.24,9.48l-1.58-1.38c2.48-1.68,3.76-4.38,3.8-8.1Zm2.36,1.16h6.34v1.92h-2.3v5h2v1.92h-2v6h2.6v1.94h-7.32v-1.94h2.7v-6h-1.8V892.6h1.8v-5h-2Z"
                  transform="translate(-10 35)" fill="#be7a75"/>
        </g>
        <rect id="Rectangle-29-Copy-55" x="2034" y="1027" width="94" height="146" fill="#d4e1fc" stroke="#c0d0ed"
              stroke-width="4"/>
        <rect id="Rectangle-29-Copy-34" x="676" y="645" width="140" height="164" fill="#d4e1fc" stroke="#c0d0ed"
              stroke-width="4"/>
        <polygon id="Rectangle-29-Copy-35" points="384 711 676 711 676 809 384 809 384 711" fill="#d4e1fc"
                 stroke="#c0d0ed" stroke-width="4"/>
        <rect id="Rectangle-29-Copy-38" x="10" y="55" width="180" height="80" fill="#d4e1fc" stroke="#c0d0ed"
              stroke-width="4"/>
        <rect id="Rectangle-29-Copy-39" x="264" y="55" width="88" height="78" fill="#d4e1fc" stroke="#c0d0ed"
              stroke-width="4"/>
        <rect id="Rectangle-29-Copy-36" x="384" y="885" width="294" height="98" fill="#d4e1fc" stroke="#c0d0ed"
              stroke-width="4"/>
        <polygon id="Rectangle-5-Copy-215" points="1722 631 1806 631 1806 806 1722 806 1722 631" fill="#eaeefb"
                 stroke="#dbdee7" stroke-width="4"/>
        <polygon id="Rectangle-5-Copy-212" points="1722 403 1806 403 1806 631 1722 631 1722 403" fill="#d4e1fc"
                 stroke="#c0d0ed" stroke-width="4"/>
        <polygon id="Rectangle-5-Copy-214" points="1722 806 1806 806 1806 943 1722 943 1722 806" fill="#d4e1fc"
                 stroke="#c0d0ed" stroke-width="4"/>
        <g id="f2person">
            <path id="Oval-Copy" d="M1777.32,500.53A17.28,17.28,0,1,0,1760,483.25,17.28,17.28,0,0,0,1777.32,500.53Z"
                  transform="translate(-10 35)" fill="#4287ff" stroke="#fff" stroke-width="2"/>
            <path id="Combined-Shape"
                  d="M1770.16,492.52a.8.8,0,0,1-.8-.8V474.46a.79.79,0,0,1,.8-.8h1.16v18.86Zm13.27,0V473.66h1.16a.8.8,0,0,1,.8.8v17.26a.8.8,0,0,1-.8.8Zm-11.47-15h5v11.26h-5Zm5.76,0h5v11.26h-5Zm-.28-3.91,2.16,2.3h-4.32Zm-.1,18.72-2.16-2.31h4.32Z"
                  transform="translate(-10 35)" fill="#fff"/>
        </g>
        <polygon id="Rectangle-29-Copy-54-2" data-name="Rectangle-29-Copy-54"
                 points="1998 872 2128 872 2128 984 1998 984 1998 872" fill="#eaeefb" stroke="#dbdee7"
                 stroke-width="4"/>
        <path id="Line" d="M252,231v42" transform="translate(-10 35)" fill="none" stroke="#dbdee7"
              stroke-linecap="square" stroke-width="4"/>
        <path id="Line-Copy" d="M364,571v21" transform="translate(-10 35)" fill="none" stroke="#ecd5d4"
              stroke-linecap="square" stroke-width="4"/>
        <path id="Line-5" d="M688,945v48.15" transform="translate(-10 35)" fill="none" stroke="#c0d0ed"
              stroke-linecap="square" stroke-width="4"/>
        <g id="seat_f_2wsj1" data-name="seat f 2wsj1">
            <rect id="Rectangle-11-5" data-name="Rectangle-11" x="708" y="1030" width="20" height="20" fill="#d8d8d8"/>
        </g>
        <g id="seat_f_2_d_wsj1" data-name="seat f 2 d wsj1">
            <polygon id="Rectangle-8-Copy-14" points="676 1158.23 736 1158.23 736.4 1027 676.4 1027 676 1158.23"
                     fill="#fff5df" stroke="#f4dea7" stroke-width="4"/>
            <g id="_6549" data-name="6549">
                <path id="Oval-Copy-2" data-name="Oval-Copy"
                      d="M716.69,1060.53a17.28,17.28,0,1,0-17.28-17.28A17.28,17.28,0,0,0,716.69,1060.53Z"
                      transform="translate(-10 35)" fill="#f5d163" stroke="#fff" stroke-width="2"/>
                <path id="Combined-Shape-2" data-name="Combined-Shape"
                      d="M708.79,1035.77a2.78,2.78,0,1,1,2.77,2.77A2.77,2.77,0,0,1,708.79,1035.77Zm9.11,0a2.78,2.78,0,1,1,2.77,2.77A2.77,2.77,0,0,1,717.9,1035.77Zm-3.59,3.57a.88.88,0,0,1,.91,1l-.73,5a.82.82,0,0,1-.27.55l-.46.45a.78.78,0,0,0-.27.55l-.82,5.28a.9.9,0,0,1-.92.82h-.27a1,1,0,0,1-.91-.82l-.82-5.28a.8.8,0,0,0-.28-.55l-.45-.45a.79.79,0,0,1-.28-.55l-.73-5a.89.89,0,0,1,.91-1Zm10.86,7.47a.49.49,0,0,1-.37.72h-1.18a.93.93,0,0,0-1,.73l-.73,3.92a1.1,1.1,0,0,1-1,.73h-.27a.92.92,0,0,1-1-.73l-.73-3.92a1.11,1.11,0,0,0-1-.73h-1.19c-.45,0-.73-.36-.55-.72l3.29-6.93a1,1,0,0,1,.91-.54H721a1,1,0,0,1,.91.54Z"
                      transform="translate(-10 35)" fill="#fff"/>
            </g>
        </g>
        <g id="seat_f_2xys" data-name="seat f 2xys">
            <rect id="Rectangle-11-6" data-name="Rectangle-11" x="774" y="1149" width="20" height="20" fill="#fff"/>
        </g>
        <g id="seat_f_2_d_xys" data-name="seat f 2 d xys">
            <rect id="Rectangle-8-Copy-17" x="678" y="1125" width="94" height="48" fill="#fff5df" stroke="#f4dea7"
                  stroke-width="4"/>
            <path id="吸烟室"
                  d="M711.18,1106.12v12.68h-3.74V1120h-2.08v-13.92Zm-3.74,10.72h1.72v-8.76h-1.72Zm5.94-9.64h-1.66v-2h9.54v1.36c-.32,1.6-.66,3-1,4.2h2.3v1.16a15.4,15.4,0,0,1-2.62,6.7,18.09,18.09,0,0,0,3.48,2.64l-1.36,1.8a18.31,18.31,0,0,1-3.5-2.82,14.32,14.32,0,0,1-4.32,2.88l-1.18-1.9a15.4,15.4,0,0,0,4.06-2.68,17.83,17.83,0,0,1-2.16-3.86,16,16,0,0,1-3.8,8.34l-1.64-1.44c2.52-2.64,3.82-6.9,3.86-12.74Zm5.1,9.74a12.43,12.43,0,0,0,2-4.4h-2.74c.38-1.24.8-3,1.28-5.34h-3.54v1.6c0,.5,0,1,0,1.46A15.6,15.6,0,0,0,718.48,1116.94Zm6.9-8.28,1.78.14a35.75,35.75,0,0,1-.64,5.82l-1.74-.46A30.27,30.27,0,0,0,725.38,1108.66Zm5.72-1.3.84,1.06v-3.2H742.6V1123h-2v-.92h-6.68v.94h-1.94v-13.94a17.11,17.11,0,0,1-2.22,2.32v.82c0,1.2-.08,2.34-.2,3.38.74.92,1.5,1.92,2.26,3l-1.18,1.74c-.56-1.1-1.06-2-1.46-2.64a12,12,0,0,1-2.48,5.2l-1.58-1.38q2.61-2.91,2.66-9.32v-7.44h2v4.34A18,18,0,0,0,731.1,1107.36Zm2.78,12.84h6.68v-2l-1.34.92a40,40,0,0,0-1.86-3.7,10.06,10.06,0,0,1-2.14,4l-1.34-1.16Zm0-2.08a10.7,10.7,0,0,0,2.32-5.88h-1.82v-1.88h2c0-.3,0-.58,0-.84v-1.72h1.76v1.72c0,.28,0,.56,0,.84H740v1.88H738c0,.26-.06.5-.08.74a52.63,52.63,0,0,1,2.68,4.66v-10.5h-6.68Zm13.32-7.6h-1.86v-4.28h7.5a12.91,12.91,0,0,0-.9-1.46l2.36-.4c.28.56.56,1.18.82,1.86h7.54v4.28H760.8v.92H758a29.35,29.35,0,0,1,3.58,3.36l-1.54,1.56a14.64,14.64,0,0,0-1.16-1.44c-1.24.1-2.5.2-3.78.28v1.68h6.14v1.94h-6.14v1.84h7.7v1.94H745.24v-1.94h7.7v-1.84h-6.1v-1.94h6.1v-1.54c-1.76.1-3.56.2-5.4.28l-.48-1.8a2,2,0,0,0,.44-.18,8.79,8.79,0,0,0,2.44-2.2H747.2Zm5.14.92a19,19,0,0,1-1.92,2.32c2.3-.1,4.6-.24,6.88-.42l-1.2-1.08.84-.82Zm8.2-1.88v-1.36H747.46v1.36Z"
                  transform="translate(-10 35)" fill="#da8c5b"/>
        </g>
        <g id="seat_f_2jianchashi1" data-name="seat f 2jianchashi1">
            <rect id="Rectangle-11-7" data-name="Rectangle-11" x="264" y="876" width="20" height="20" fill="#fff"/>
        </g>
        <g id="seat_f_2_d_jianchashi1" data-name="seat f 2 d jianchashi1">
            <rect id="Rectangle-5-Copy-14" x="242" y="885" width="74" height="98" fill="#f3e6e5" stroke="#ecd5d4"
                  stroke-width="4"/>
            <path id="检-查-室"
                  d="M280.12,865.26h2.26v-3.68h2.06v3.68h1.82v2h-1.82V868c.8.8,1.58,1.66,2.36,2.6l-1.18,1.78c-.44-.84-.84-1.58-1.18-2.18V880h-2.06v-8.52a26.24,26.24,0,0,1-1.86,4.16l-.9-2.32a17.84,17.84,0,0,0,2.7-6h-2.2ZM289,868a15.85,15.85,0,0,1-2,1.7L285.86,868a16.1,16.1,0,0,0,5.28-6.36h1.92a15.26,15.26,0,0,0,5.4,6.36l-1.16,1.76a15.42,15.42,0,0,1-2-1.66v1H289Zm5.36-.88a14.39,14.39,0,0,1-2.3-3.48,19.71,19.71,0,0,1-2.26,3.48Zm-8.08,10.38h6.84A51.09,51.09,0,0,0,295.1,870l2,.5a53.13,53.13,0,0,1-1.86,7.08H298v2H286.32Zm2.72-7a50.49,50.49,0,0,1,1.36,5.82l-1.82.48c-.36-2-.82-3.88-1.34-5.7Zm3-.72c.48,1.64.92,3.5,1.32,5.6l-1.9.5a55.49,55.49,0,0,0-1.2-5.5ZM282.86,897h12.36v7.66H282.86Zm10.32,5.82V901.7H284.9v1.08Zm-8.28-2.84h8.28V898.8H284.9Zm-4.16-8.78H288v-1.62h2v1.62h7.28v1.92h-5.46a17.43,17.43,0,0,0,6.34,2.7l-.9,1.88q-5-1.71-7.26-4.44v3.16h-2v-3.16a17.51,17.51,0,0,1-7.14,4.44l-1.14-1.84a20.21,20.21,0,0,0,6.5-2.74h-5.5Zm-.4,14.5h17.34v1.9H280.34Zm1.86,17.86h-1.86v-4.28h7.5a12.91,12.91,0,0,0-.9-1.46l2.36-.4c.28.56.56,1.18.82,1.86h7.54v4.28H295.8v.92H293a29.35,29.35,0,0,1,3.58,3.36L295,929.36a14.64,14.64,0,0,0-1.16-1.44c-1.24.1-2.5.2-3.78.28v1.68h6.14v1.94h-6.14v1.84h7.7v1.94H280.24v-1.94h7.7v-1.84h-6.1v-1.94h6.1v-1.54c-1.76.1-3.56.2-5.4.28l-.48-1.8a2,2,0,0,0,.44-.18,8.79,8.79,0,0,0,2.44-2.2H282.2Zm5.14.92a19,19,0,0,1-1.92,2.32c2.3-.1,4.6-.24,6.88-.42l-1.2-1.08.84-.82Zm8.2-1.88V921.2H282.46v1.36Z"
                  transform="translate(-10 35)" fill="#be7a75"/>
        </g>
        <g id="seat_f_2fuwutai1" data-name="seat f 2fuwutai1">
            <rect id="Rectangle-11-8" data-name="Rectangle-11" x="235" y="705" width="20" height="20" fill="#fff"/>
        </g>
        <g id="seat_f_2_d_fuwutai1" data-name="seat f 2 d fuwutai1">
            <rect id="Rectangle-29-Copy-48" x="242" y="625" width="112" height="164" fill="#fbd3da" stroke="#f0b9c2"
                  stroke-width="4"/>
            <path id="服务台"
                  d="M281.92,669.78v2.76h2.62v-2.76Zm2.62-1.86v-2.8h-2.62v2.8Zm-2.66,6.5a18.79,18.79,0,0,1-1.46,6.72l-1.58-1.44a15.83,15.83,0,0,0,1.22-6.54v-9.92h6.38V678.9c0,1.4-.64,2.12-1.92,2.12h-1.6l-.5-1.82c.54,0,1,.08,1.52.08s.6-.36.6-1.06v-3.8Zm7.74-2v6.92a10.18,10.18,0,0,0,2.48-2,12.68,12.68,0,0,1-2.32-4.92Zm0,7.08v1.58h-2V663.24h8.56a24.29,24.29,0,0,1-.38,5.3c-.24.84-1,1.28-2.3,1.28h-1.68L291.3,668l1.3,0a4.3,4.3,0,0,0,.9-.08.77.77,0,0,0,.46-.5,11.67,11.67,0,0,0,.22-2.36h-4.56v5.48h6.74v1.74a14.74,14.74,0,0,1-1.72,4.9,14.86,14.86,0,0,0,2.72,2l-1,1.78a16,16,0,0,1-2.88-2.18,10.6,10.6,0,0,1-2.84,2.2Zm1.94-7.08a10.45,10.45,0,0,0,1.7,3.28,13,13,0,0,0,1.26-3.28Zm13-10,2.12.32c-.2.46-.4.9-.62,1.3h8.5v1.68a16.7,16.7,0,0,1-4.22,3.48,28.32,28.32,0,0,0,7,1.5l-.94,1.94a26.91,26.91,0,0,1-8.36-2.26,32.27,32.27,0,0,1-8.3,2.32l-1-2a33.05,33.05,0,0,0,7-1.58,22.5,22.5,0,0,1-2.46-1.74A21.52,21.52,0,0,1,301.1,669l-1.26-1.66A10.28,10.28,0,0,0,304.52,662.48Zm3.46,5.78a18.06,18.06,0,0,0,3.44-2.2h-6.76l0,0A18.49,18.49,0,0,0,308,668.26Zm-1.52,3.32h2.06a14.74,14.74,0,0,1-.14,1.94h6.84c0,3.56-.34,5.68-.9,6.38a3.57,3.57,0,0,1-2.94,1.06c-.7,0-1.54,0-2.54-.12l-.52-1.88c1.06.06,1.92.1,2.6.12.94,0,1.52-.22,1.76-.6a7.41,7.41,0,0,0,.46-3.08H307.9a7,7,0,0,1-.6,1.3c-1,1.78-3.3,3.26-7,4.46l-1.38-1.7c3.24-.94,5.36-2.08,6.34-3.42.14-.22.26-.44.38-.64h-5.48v-1.88h6.12A12,12,0,0,0,306.46,671.58Zm28.44,1v8.58h-2.12v-.76h-9.56v.76H321.1v-8.58Zm-11.68,5.82h9.56v-3.82h-9.56Zm-3.38-7.6-.38-2c1.4-.22,3.48-2.32,6.2-6.3l2.16.76a37.48,37.48,0,0,1-4.76,5.48q4.86-.24,9.48-.66c-.6-.88-1.22-1.72-1.84-2.5l1.9-.9a58.17,58.17,0,0,1,4.54,6.62l-2,1c-.44-.82-.9-1.6-1.36-2.36Q327.5,670.49,319.84,670.76Z"
                  transform="translate(-10 35)" fill="#c3717f"/>
        </g>
        <g id="seat_f_2fuwutai2" data-name="seat f 2fuwutai2">
            <rect id="Rectangle-11-9" data-name="Rectangle-11" x="1329" y="978" width="20" height="20" fill="#fff"/>
        </g>
        <g id="seat_f_2_d_fuwutai2" data-name="seat f 2 d fuwutai2">
            <rect id="Rectangle-29-Copy-68" x="1284" y="873" width="122" height="112" fill="#fbd3da" stroke="#f0b9c2"
                  stroke-width="4"/>
            <path id="服务台-2" data-name="服务台"
                  d="M1328.92,891.78v2.76h2.62v-2.76Zm2.62-1.86v-2.8h-2.62v2.8Zm-2.66,6.5a18.79,18.79,0,0,1-1.46,6.72l-1.58-1.44a15.83,15.83,0,0,0,1.22-6.54v-9.92h6.38V900.9c0,1.4-.64,2.12-1.92,2.12h-1.6l-.5-1.82c.54,0,1,.08,1.52.08s.6-.36.6-1.06v-3.8Zm7.74-2v6.92a10.18,10.18,0,0,0,2.48-2,12.68,12.68,0,0,1-2.32-4.92Zm0,7.08v1.58h-2V885.24h8.56a24.29,24.29,0,0,1-.38,5.3c-.24.84-1,1.28-2.3,1.28h-1.68l-.56-1.78,1.3,0a4.3,4.3,0,0,0,.9-.08.77.77,0,0,0,.46-.5,11.67,11.67,0,0,0,.22-2.36h-4.56v5.48h6.74v1.74a14.74,14.74,0,0,1-1.72,4.9,14.86,14.86,0,0,0,2.72,2l-1,1.78a16,16,0,0,1-2.88-2.18,10.6,10.6,0,0,1-2.84,2.2Zm1.94-7.08a10.45,10.45,0,0,0,1.7,3.28,13,13,0,0,0,1.26-3.28Zm13-10,2.12.32c-.2.46-.4.9-.62,1.3h8.5v1.68a16.7,16.7,0,0,1-4.22,3.48,28.32,28.32,0,0,0,7,1.5l-.94,1.94a26.91,26.91,0,0,1-8.36-2.26,32.27,32.27,0,0,1-8.3,2.32l-1-2a33.05,33.05,0,0,0,7-1.58,22.5,22.5,0,0,1-2.46-1.74,21.52,21.52,0,0,1-2.14,1.52l-1.26-1.66A10.28,10.28,0,0,0,1351.52,884.48Zm3.46,5.78a18.06,18.06,0,0,0,3.44-2.2h-6.76l0,0A18.49,18.49,0,0,0,1355,890.26Zm-1.52,3.32h2.06a14.74,14.74,0,0,1-.14,1.94h6.84c0,3.56-.34,5.68-.9,6.38a3.57,3.57,0,0,1-2.94,1.06c-.7,0-1.54,0-2.54-.12l-.52-1.88c1.06.06,1.92.1,2.6.12.94,0,1.52-.22,1.76-.6a7.41,7.41,0,0,0,.46-3.08h-5.24a7,7,0,0,1-.6,1.3c-1,1.78-3.3,3.26-7,4.46l-1.38-1.7c3.24-.94,5.36-2.08,6.34-3.42.14-.22.26-.44.38-.64h-5.48v-1.88h6.12A12,12,0,0,0,1353.46,893.58Zm28.44,1v8.58h-2.12v-.76h-9.56v.76h-2.12v-8.58Zm-11.68,5.82h9.56v-3.82h-9.56Zm-3.38-7.6-.38-2c1.4-.22,3.48-2.32,6.2-6.3l2.16.76a37.48,37.48,0,0,1-4.76,5.48q4.86-.24,9.48-.66c-.6-.88-1.22-1.72-1.84-2.5l1.9-.9a58.17,58.17,0,0,1,4.54,6.62l-2,1c-.44-.82-.9-1.6-1.36-2.36Q1374.5,892.49,1366.84,892.76Z"
                  transform="translate(-10 35)" fill="#c3717f"/>
        </g>
        <g id="seat_f_2_d_bg1" data-name="seat f 2 d bg1">
            <rect id="Rectangle-29-Copy-41" x="384" y="281" width="128" height="430" fill="#f3e6e5" stroke="#ecd5d4"
                  stroke-width="4"/>
            <path id="办公"
                  d="M441,458.72l1.84.74a14.89,14.89,0,0,1-2.54,5.48l-1.56-1.38A11.71,11.71,0,0,0,441,458.72Zm4.16-7.1h2.12v3.64h6.28c0,1.44-.08,2.78-.12,4l1.36-.66q1.35,2.7,2.64,5.94l-1.92.94a55.13,55.13,0,0,0-2.12-5.12c-.08,1.36-.14,2.56-.22,3.6a13,13,0,0,1-1,4.62,2.53,2.53,0,0,1-2.22,1.36h-2.4l-.56-2c.68,0,1.32.08,1.92.08q1.44,0,1.92-2a57.89,57.89,0,0,0,.6-8.74h-4.22a22.36,22.36,0,0,1-1.7,7.82,10.94,10.94,0,0,1-5.16,5l-1.14-1.84a10.06,10.06,0,0,0,4.64-4.68,21.3,21.3,0,0,0,1.24-6.32h-4.68v-2h4.76Zm19,.12,1.94.8a23.43,23.43,0,0,1-5.56,9.56l-1.66-1.44A20.08,20.08,0,0,0,464.08,451.74Zm7.8,10.6a42.5,42.5,0,0,1,3.64,6.88l-2,.88q-.39-1-.78-1.86c-3.44.52-7.3.9-11.56,1.18l-.36-2q2-.45,5.92-9.06l2.06.72a56.08,56.08,0,0,1-4.8,8.26c2.68-.18,5.32-.46,7.88-.86A36.81,36.81,0,0,0,470,463Zm-.34-10.76a17.94,17.94,0,0,0,5.7,8.82l-1.5,1.74a19.43,19.43,0,0,1-6-9.56Z"
                  transform="translate(-10 35)" fill="#be7a75"/>
        </g>
        <g id="seat_f_2D0208-D0216" data-name="seat f 2D0208-D0216">
            <rect id="Rectangle-11-10" data-name="Rectangle-11" x="180" y="558" width="20" height="20" fill="#fff"/>
        </g>
        <g id="seat_f_2_d_D0208-D0216" data-name="seat f 2 d D0208-D0216">
            <rect id="Rectangle-29-Copy-75" x="10" y="133" width="180" height="788" fill="#fbd3da" stroke="#f0b9c2"
                  stroke-width="4"/>
            <path id="病房-D0208-D0216"
                  d="M102.62,480.92a8.3,8.3,0,0,1-2.54,3.14l-1.24-1.5a6.93,6.93,0,0,0,2.44-3.64l.08-.34H98.64V487h-2V476.7h5c0-.5.08-1,.1-1.54H96.3v-1.92h12.36v1.92h-5c0,.54,0,1.06-.08,1.54h4.7v7.88c0,1.54-.68,2.32-2,2.32h-2l-.52-1.94,1.9.1c.46,0,.7-.32.7-.92v-5.56h-3c0,.24-.1.46-.14.68a18.44,18.44,0,0,1,2.92,2.82l-1.14,1.72A18.83,18.83,0,0,0,102.62,480.92Zm-8.76-3.76c0-.16,0-.28,0-.4V475.5l-1.6.7a24.88,24.88,0,0,0-1.64-3.84l1.8-.76A24.17,24.17,0,0,1,93.88,475V469.9h6.56a9.2,9.2,0,0,0-.56-1.18l2.12-.36c.18.46.36,1,.56,1.54h6.24v2H95.88v4.9q-.12,6.39-2.52,10.24l-1.56-1.38a14.91,14.91,0,0,0,1.92-6.24,23.88,23.88,0,0,1-2.44,1.68l-.58-2A21.34,21.34,0,0,0,93.86,477.16Zm24.34,2.22h-2.88v-2h5.32c-.16-.42-.32-.82-.5-1.18l2.22-.36c.16.46.32,1,.48,1.54h6.1v2h-8.62q-.06.72-.18,1.38h7.46a29.63,29.63,0,0,1-.44,5,1.55,1.55,0,0,1-1.06,1,16.68,16.68,0,0,1-3.72.26h-.2l-.56-1.88c.44,0,.86.06,1.3.06a8.34,8.34,0,0,0,1.88-.14.73.73,0,0,0,.48-.42c0-.2.1-.86.2-2h-5.9a9,9,0,0,1-4.3,4.42l-1.14-1.82A6.65,6.65,0,0,0,118.2,479.38Zm7.74-7.52H114.76v1.9h11.18Zm-11.18,3.82v1.46a18.74,18.74,0,0,1-2.6,10l-1.56-1.4a16.28,16.28,0,0,0,2.06-8.56v-7.22h6.54a11.36,11.36,0,0,0-.52-1.2l2.26-.36q.27.72.54,1.56H128v5.76Zm-69.91,23h5.22a6.84,6.84,0,0,1,5.26,1.92,8.78,8.78,0,0,1,0,10.44A6.84,6.84,0,0,1,50.07,513H44.85Zm2.34,2V511h2.44a5.34,5.34,0,0,0,3.9-1.24,5.49,5.49,0,0,0,1.2-3.9,5.41,5.41,0,0,0-1.2-3.92,5.33,5.33,0,0,0-3.9-1.22Zm16.66-2.28a4.43,4.43,0,0,1,3.9,2.08,11.46,11.46,0,0,1,0,10.68,4.48,4.48,0,0,1-3.9,2.08A4.43,4.43,0,0,1,60,511.2a11.46,11.46,0,0,1,0-10.68A4.39,4.39,0,0,1,63.85,498.44Zm0,2a2.45,2.45,0,0,0-2.4,1.9,10.47,10.47,0,0,0-.48,3.54,10.63,10.63,0,0,0,.48,3.54,2.47,2.47,0,0,0,2.4,1.9,2.51,2.51,0,0,0,2.4-1.9,10.63,10.63,0,0,0,.48-3.54,10.47,10.47,0,0,0-.48-3.54A2.48,2.48,0,0,0,63.85,500.42Zm12.22-2a5,5,0,0,1,3.42,1.2,4,4,0,0,1,1.32,3.1,5,5,0,0,1-1.4,3.38,18.44,18.44,0,0,1-3,2.3,7.16,7.16,0,0,0-2.66,2.52h7V513h-10a5.51,5.51,0,0,1,1.42-3.8,19.37,19.37,0,0,1,3.28-2.62,13.15,13.15,0,0,0,2-1.6,3.38,3.38,0,0,0,.94-2.26,2.3,2.3,0,0,0-.62-1.74,2.69,2.69,0,0,0-1.86-.56,2.3,2.3,0,0,0-2,.9,4.36,4.36,0,0,0-.72,2.54H71a5.5,5.5,0,0,1,1.4-3.86A4.77,4.77,0,0,1,76.07,498.44Zm11.78,0a4.43,4.43,0,0,1,3.9,2.08,11.46,11.46,0,0,1,0,10.68,4.48,4.48,0,0,1-3.9,2.08A4.43,4.43,0,0,1,84,511.2a11.46,11.46,0,0,1,0-10.68A4.39,4.39,0,0,1,87.85,498.44Zm0,2a2.45,2.45,0,0,0-2.4,1.9,10.47,10.47,0,0,0-.48,3.54,10.63,10.63,0,0,0,.48,3.54,2.47,2.47,0,0,0,2.4,1.9,2.51,2.51,0,0,0,2.4-1.9,10.63,10.63,0,0,0,.48-3.54,10.47,10.47,0,0,0-.48-3.54A2.48,2.48,0,0,0,87.85,500.42Zm12-2a5.29,5.29,0,0,1,3.66,1.22,3.5,3.5,0,0,1,1.22,2.7,3.36,3.36,0,0,1-.48,1.84,3.41,3.41,0,0,1-1.58,1.22v0a3.24,3.24,0,0,1,1.72,1.2,3.67,3.67,0,0,1,.82,2.34,3.92,3.92,0,0,1-1.4,3.1,6,6,0,0,1-4,1.18,6,6,0,0,1-4-1.18,3.86,3.86,0,0,1-1.4-3.1,3.56,3.56,0,0,1,.82-2.34,3.17,3.17,0,0,1,1.72-1.2v0a3.22,3.22,0,0,1-1.58-1.22,3.36,3.36,0,0,1-.48-1.84,3.44,3.44,0,0,1,1.22-2.7A5.22,5.22,0,0,1,99.85,498.44Zm0,1.86a2.87,2.87,0,0,0-2,.68,1.89,1.89,0,0,0-.66,1.46,2.18,2.18,0,0,0,.54,1.56,2.84,2.84,0,0,0,2.14.7A2.87,2.87,0,0,0,102,504a2.18,2.18,0,0,0,.54-1.56,1.89,1.89,0,0,0-.66-1.46A2.91,2.91,0,0,0,99.85,500.3Zm0,6.14a3.25,3.25,0,0,0-2.28.72,2.33,2.33,0,0,0-.76,1.84,2.13,2.13,0,0,0,.8,1.74,3.36,3.36,0,0,0,2.24.66,3.6,3.6,0,0,0,2.28-.68,2.17,2.17,0,0,0,.76-1.72,2.38,2.38,0,0,0-.74-1.82A3.25,3.25,0,0,0,99.85,506.44Zm7,.44H117v1.88h-10.1Zm12.5-8.16h5.22a6.84,6.84,0,0,1,5.26,1.92,8.78,8.78,0,0,1,0,10.44,6.84,6.84,0,0,1-5.26,1.92h-5.22Zm2.34,2V511h2.44a5.34,5.34,0,0,0,3.9-1.24,5.49,5.49,0,0,0,1.2-3.9,5.41,5.41,0,0,0-1.2-3.92,5.33,5.33,0,0,0-3.9-1.22Zm16.66-2.28a4.43,4.43,0,0,1,3.9,2.08,11.46,11.46,0,0,1,0,10.68,4.48,4.48,0,0,1-3.9,2.08,4.43,4.43,0,0,1-3.9-2.08,11.46,11.46,0,0,1,0-10.68A4.39,4.39,0,0,1,138.35,498.44Zm0,2a2.45,2.45,0,0,0-2.4,1.9,10.47,10.47,0,0,0-.48,3.54,10.63,10.63,0,0,0,.48,3.54,2.47,2.47,0,0,0,2.4,1.9,2.51,2.51,0,0,0,2.4-1.9,10.63,10.63,0,0,0,.48-3.54,10.47,10.47,0,0,0-.48-3.54A2.48,2.48,0,0,0,138.35,500.42Zm12.22-2a5,5,0,0,1,3.42,1.2,4,4,0,0,1,1.32,3.1,5,5,0,0,1-1.4,3.38,18.44,18.44,0,0,1-3,2.3,7.16,7.16,0,0,0-2.66,2.52h7V513h-10a5.51,5.51,0,0,1,1.42-3.8,19.37,19.37,0,0,1,3.28-2.62,13.15,13.15,0,0,0,2-1.6,3.38,3.38,0,0,0,.94-2.26,2.3,2.3,0,0,0-.62-1.74,2.69,2.69,0,0,0-1.86-.56,2.3,2.3,0,0,0-2,.9,4.36,4.36,0,0,0-.72,2.54h-2.34a5.5,5.5,0,0,1,1.4-3.86A4.77,4.77,0,0,1,150.57,498.44Zm10.42.28h1.76V513h-2.34V501.54a8.08,8.08,0,0,1-3.26,1.74V501a8.48,8.48,0,0,0,2-.84A8.92,8.92,0,0,0,161,498.72Zm9.76-.28q4.2,0,4.74,3.9h-2.28a2.29,2.29,0,0,0-2.48-2,2.55,2.55,0,0,0-2.28,1.4,6,6,0,0,0-.82,3.3v.18h.1a3.59,3.59,0,0,1,1.5-1.3,4.23,4.23,0,0,1,1.92-.4,4.37,4.37,0,0,1,3.36,1.34,4.88,4.88,0,0,1,1.26,3.46,4.7,4.7,0,0,1-1.46,3.54,5,5,0,0,1-3.58,1.4,4.67,4.67,0,0,1-4-1.9,8.42,8.42,0,0,1-1.36-5.12,9.86,9.86,0,0,1,1.46-5.66A4.51,4.51,0,0,1,170.75,498.44Zm-.1,7a2.58,2.58,0,0,0-2,.8,3,3,0,0,0-.74,2.18,2.9,2.9,0,0,0,.78,2.14,2.7,2.7,0,0,0,2,.78,2.61,2.61,0,0,0,2-.84,3,3,0,0,0,.78-2.16,3,3,0,0,0-.74-2.1A2.71,2.71,0,0,0,170.65,505.44Z"
                  transform="translate(-10 35)" fill="#c3717f"/>
        </g>
        <g id="seat_f_2D0201-D0207" data-name="seat f 2D0201-D0207">
            <rect id="Rectangle-11-11" data-name="Rectangle-11" x="291" y="1025" width="20" height="20" fill="#d8d8d8"/>
        </g>
        <g id="seat_f_2_d_D0201-D0207" data-name="seat f 2 d D0201-D0207">
            <rect id="Rectangle-29-Copy-84" x="10" y="1027" width="668" height="146" fill="#fbd3da" stroke="#f0b9c2"
                  stroke-width="4"/>
            <path id="病房-D0201-D0207"
                  d="M277.21,1067.92a8.3,8.3,0,0,1-2.54,3.14l-1.24-1.5a6.93,6.93,0,0,0,2.44-3.64l.08-.34h-2.72V1074h-2V1063.7h5c0-.5.08-1,.1-1.54h-5.44v-1.92h12.36v1.92h-5c0,.54,0,1.06-.08,1.54h4.7v7.88c0,1.54-.68,2.32-2,2.32h-2l-.52-1.94,1.9.1c.46,0,.7-.32.7-.92v-5.56h-3c0,.24-.1.46-.14.68a18.44,18.44,0,0,1,2.92,2.82l-1.14,1.72A18.83,18.83,0,0,0,277.21,1067.92Zm-8.76-3.76c0-.16,0-.28,0-.4v-1.26l-1.6.7a24.88,24.88,0,0,0-1.64-3.84l1.8-.76a24.17,24.17,0,0,1,1.44,3.38v-5.08H275a9.2,9.2,0,0,0-.56-1.18l2.12-.36c.18.46.36,1,.56,1.54h6.24v2H270.47v4.9q-.12,6.39-2.52,10.24l-1.56-1.38a14.91,14.91,0,0,0,1.92-6.24,23.88,23.88,0,0,1-2.44,1.68l-.58-2A21.34,21.34,0,0,0,268.45,1064.16Zm24.34,2.22h-2.88v-2h5.32c-.16-.42-.32-.82-.5-1.18l2.22-.36c.16.46.32,1,.48,1.54h6.1v2h-8.62q-.06.72-.18,1.38h7.46a29.63,29.63,0,0,1-.44,5,1.55,1.55,0,0,1-1.06,1,16.68,16.68,0,0,1-3.72.26h-.2l-.56-1.88c.44,0,.86.06,1.3.06a8.34,8.34,0,0,0,1.88-.14.73.73,0,0,0,.48-.42c0-.2.1-.86.2-2h-5.9a9,9,0,0,1-4.3,4.42l-1.14-1.82A6.65,6.65,0,0,0,292.79,1066.38Zm7.74-7.52H289.35v1.9h11.18Zm-11.18,3.82v1.46a18.74,18.74,0,0,1-2.6,10l-1.56-1.4a16.28,16.28,0,0,0,2.06-8.56v-7.22h6.54a11.36,11.36,0,0,0-.52-1.2l2.26-.36q.27.72.54,1.56h6.52v5.76Zm23.3-5h5.22a6.84,6.84,0,0,1,5.26,1.92,8.78,8.78,0,0,1,0,10.44,6.84,6.84,0,0,1-5.26,1.92h-5.22Zm2.34,2V1070h2.44a5.34,5.34,0,0,0,3.9-1.24,5.49,5.49,0,0,0,1.2-3.9,5.41,5.41,0,0,0-1.2-3.92,5.33,5.33,0,0,0-3.9-1.22Zm16.66-2.28a4.43,4.43,0,0,1,3.9,2.08,11.46,11.46,0,0,1,0,10.68,4.48,4.48,0,0,1-3.9,2.08,4.43,4.43,0,0,1-3.9-2.08,11.46,11.46,0,0,1,0-10.68A4.39,4.39,0,0,1,331.65,1057.44Zm0,2a2.45,2.45,0,0,0-2.4,1.9,10.47,10.47,0,0,0-.48,3.54,10.63,10.63,0,0,0,.48,3.54,2.47,2.47,0,0,0,2.4,1.9,2.51,2.51,0,0,0,2.4-1.9,10.63,10.63,0,0,0,.48-3.54,10.47,10.47,0,0,0-.48-3.54A2.48,2.48,0,0,0,331.65,1059.42Zm12.22-2a5,5,0,0,1,3.42,1.2,4,4,0,0,1,1.32,3.1,5,5,0,0,1-1.4,3.38,18.44,18.44,0,0,1-3,2.3,7.16,7.16,0,0,0-2.66,2.52h7V1072h-10a5.51,5.51,0,0,1,1.42-3.8,19.37,19.37,0,0,1,3.28-2.62,13.15,13.15,0,0,0,2-1.6,3.38,3.38,0,0,0,.94-2.26,2.3,2.3,0,0,0-.62-1.74,2.69,2.69,0,0,0-1.86-.56,2.3,2.3,0,0,0-2,.9,4.36,4.36,0,0,0-.72,2.54h-2.34a5.5,5.5,0,0,1,1.4-3.86A4.77,4.77,0,0,1,343.87,1057.44Zm11.78,0a4.43,4.43,0,0,1,3.9,2.08,11.46,11.46,0,0,1,0,10.68,4.48,4.48,0,0,1-3.9,2.08,4.43,4.43,0,0,1-3.9-2.08,11.46,11.46,0,0,1,0-10.68A4.39,4.39,0,0,1,355.65,1057.44Zm0,2a2.45,2.45,0,0,0-2.4,1.9,10.47,10.47,0,0,0-.48,3.54,10.63,10.63,0,0,0,.48,3.54,2.47,2.47,0,0,0,2.4,1.9,2.51,2.51,0,0,0,2.4-1.9,10.63,10.63,0,0,0,.48-3.54,10.47,10.47,0,0,0-.48-3.54A2.48,2.48,0,0,0,355.65,1059.42Zm10.64-1.7h1.76V1072h-2.34v-11.46a8.08,8.08,0,0,1-3.26,1.74V1060a8.48,8.48,0,0,0,2-.84A8.92,8.92,0,0,0,366.29,1057.72Zm4.56,8.16H381v1.88h-10.1Zm12.5-8.16h5.22a6.84,6.84,0,0,1,5.26,1.92,8.78,8.78,0,0,1,0,10.44,6.84,6.84,0,0,1-5.26,1.92h-5.22Zm2.34,2V1070h2.44a5.34,5.34,0,0,0,3.9-1.24,5.49,5.49,0,0,0,1.2-3.9,5.41,5.41,0,0,0-1.2-3.92,5.33,5.33,0,0,0-3.9-1.22Zm16.66-2.28a4.43,4.43,0,0,1,3.9,2.08,11.46,11.46,0,0,1,0,10.68,4.48,4.48,0,0,1-3.9,2.08,4.43,4.43,0,0,1-3.9-2.08,11.46,11.46,0,0,1,0-10.68A4.39,4.39,0,0,1,402.35,1057.44Zm0,2a2.45,2.45,0,0,0-2.4,1.9,10.47,10.47,0,0,0-.48,3.54,10.63,10.63,0,0,0,.48,3.54,2.47,2.47,0,0,0,2.4,1.9,2.51,2.51,0,0,0,2.4-1.9,10.63,10.63,0,0,0,.48-3.54,10.47,10.47,0,0,0-.48-3.54A2.48,2.48,0,0,0,402.35,1059.42Zm12.22-2a5,5,0,0,1,3.42,1.2,4,4,0,0,1,1.32,3.1,5,5,0,0,1-1.4,3.38,18.44,18.44,0,0,1-3,2.3,7.16,7.16,0,0,0-2.66,2.52h7V1072h-10a5.51,5.51,0,0,1,1.42-3.8,19.37,19.37,0,0,1,3.28-2.62,13.15,13.15,0,0,0,2-1.6,3.38,3.38,0,0,0,.94-2.26,2.3,2.3,0,0,0-.62-1.74,2.69,2.69,0,0,0-1.86-.56,2.3,2.3,0,0,0-2,.9,4.36,4.36,0,0,0-.72,2.54h-2.34a5.5,5.5,0,0,1,1.4-3.86A4.77,4.77,0,0,1,414.57,1057.44Zm11.78,0a4.43,4.43,0,0,1,3.9,2.08,11.46,11.46,0,0,1,0,10.68,4.48,4.48,0,0,1-3.9,2.08,4.43,4.43,0,0,1-3.9-2.08,11.46,11.46,0,0,1,0-10.68A4.39,4.39,0,0,1,426.35,1057.44Zm0,2a2.45,2.45,0,0,0-2.4,1.9,10.47,10.47,0,0,0-.48,3.54,10.63,10.63,0,0,0,.48,3.54,2.47,2.47,0,0,0,2.4,1.9,2.51,2.51,0,0,0,2.4-1.9,10.63,10.63,0,0,0,.48-3.54,10.47,10.47,0,0,0-.48-3.54A2.48,2.48,0,0,0,426.35,1059.42Zm6.6-1.7h9.66v1.88l-5,12.4h-2.48l5.12-12.16H433Z"
                  transform="translate(-10 35)" fill="#c3717f"/>
        </g>
        <g id="seat_f_2C0201-C0211" data-name="seat f 2C0201-C0211">
            <rect id="Rectangle-11-12" data-name="Rectangle-11" x="1227" y="1018" width="20" height="20" fill="#fff"/>
        </g>
        <g id="seat_f_2_d_C0201-C0211" data-name="seat f 2 d C0201-C0211">
            <rect id="Rectangle-29-Copy-92" x="816" y="1027" width="851" height="146" fill="#fbd3da" stroke="#f0b9c2"
                  stroke-width="4"/>
            <path id="病房C0201-C0211"
                  d="M1182,1068.56a8.3,8.3,0,0,1-2.54,3.14l-1.24-1.5a6.93,6.93,0,0,0,2.44-3.64l.08-.34H1178v8.44h-2v-10.32h5c0-.5.08-1,.1-1.54h-5.44v-1.92H1188v1.92h-5c0,.54,0,1.06-.08,1.54h4.7v7.88c0,1.54-.68,2.32-2,2.32h-2l-.52-1.94,1.9.1c.46,0,.7-.32.7-.92v-5.56h-3c0,.24-.1.46-.14.68a18.44,18.44,0,0,1,2.92,2.82l-1.14,1.72A18.83,18.83,0,0,0,1182,1068.56Zm-8.76-3.76c0-.16,0-.28,0-.4v-1.26l-1.6.7A24.88,24.88,0,0,0,1170,1060l1.8-.76a24.17,24.17,0,0,1,1.44,3.38v-5.08h6.56a9.2,9.2,0,0,0-.56-1.18l2.12-.36c.18.46.36,1,.56,1.54h6.24v2h-12.92v4.9q-.12,6.39-2.52,10.24l-1.56-1.38a14.91,14.91,0,0,0,1.92-6.24,23.88,23.88,0,0,1-2.44,1.68l-.58-2A21.34,21.34,0,0,0,1173.22,1064.8Zm24.34,2.22h-2.88v-2H1200c-.16-.42-.32-.82-.5-1.18l2.22-.36c.16.46.32,1,.48,1.54h6.1v2h-8.62q-.06.72-.18,1.38H1207a29.63,29.63,0,0,1-.44,5,1.55,1.55,0,0,1-1.06,1,16.68,16.68,0,0,1-3.72.26h-.2l-.56-1.88c.44,0,.86.06,1.3.06a8.34,8.34,0,0,0,1.88-.14.73.73,0,0,0,.48-.42c0-.2.1-.86.2-2h-5.9a9,9,0,0,1-4.3,4.42l-1.14-1.82A6.65,6.65,0,0,0,1197.56,1067Zm7.74-7.52h-11.18v1.9h11.18Zm-11.18,3.82v1.46a18.74,18.74,0,0,1-2.6,10l-1.56-1.4a16.28,16.28,0,0,0,2.06-8.56v-7.22h6.54a11.36,11.36,0,0,0-.52-1.2l2.26-.36q.27.72.54,1.56h6.52v5.76Zm22.84-5.24a6.4,6.4,0,0,1,4.16,1.32,5.27,5.27,0,0,1,1.88,3.44h-2.28a3.33,3.33,0,0,0-1.34-2.06,4.25,4.25,0,0,0-2.46-.64,3.9,3.9,0,0,0-3.38,1.54,6.22,6.22,0,0,0-1,3.84,6.36,6.36,0,0,0,1,3.88,4.73,4.73,0,0,0,6,.72,4.42,4.42,0,0,0,1.44-2.44h2.28a6.3,6.3,0,0,1-2.24,3.92,6.14,6.14,0,0,1-4,1.32,6.36,6.36,0,0,1-5.32-2.24,9.4,9.4,0,0,1,.06-10.34A6.24,6.24,0,0,1,1217,1058.08Zm13,0a4.43,4.43,0,0,1,3.9,2.08,11.46,11.46,0,0,1,0,10.68,4.48,4.48,0,0,1-3.9,2.08,4.43,4.43,0,0,1-3.9-2.08,11.46,11.46,0,0,1,0-10.68A4.39,4.39,0,0,1,1230,1058.08Zm0,2a2.45,2.45,0,0,0-2.4,1.9,10.47,10.47,0,0,0-.48,3.54,10.63,10.63,0,0,0,.48,3.54,2.47,2.47,0,0,0,2.4,1.9,2.51,2.51,0,0,0,2.4-1.9,10.63,10.63,0,0,0,.48-3.54,10.47,10.47,0,0,0-.48-3.54A2.48,2.48,0,0,0,1230,1060.06Zm12.22-2a5,5,0,0,1,3.42,1.2,4,4,0,0,1,1.32,3.1,5,5,0,0,1-1.4,3.38,18.44,18.44,0,0,1-3,2.3,7.16,7.16,0,0,0-2.66,2.52h7v2.06h-10a5.51,5.51,0,0,1,1.42-3.8,19.37,19.37,0,0,1,3.28-2.62,13.15,13.15,0,0,0,2-1.6,3.38,3.38,0,0,0,.94-2.26,2.3,2.3,0,0,0-.62-1.74,2.69,2.69,0,0,0-1.86-.56,2.3,2.3,0,0,0-2,.9,4.36,4.36,0,0,0-.72,2.54h-2.34a5.5,5.5,0,0,1,1.4-3.86A4.77,4.77,0,0,1,1242.22,1058.08Zm11.78,0a4.43,4.43,0,0,1,3.9,2.08,11.46,11.46,0,0,1,0,10.68,4.48,4.48,0,0,1-3.9,2.08,4.43,4.43,0,0,1-3.9-2.08,11.46,11.46,0,0,1,0-10.68A4.39,4.39,0,0,1,1254,1058.08Zm0,2a2.45,2.45,0,0,0-2.4,1.9,10.47,10.47,0,0,0-.48,3.54,10.63,10.63,0,0,0,.48,3.54,2.47,2.47,0,0,0,2.4,1.9,2.51,2.51,0,0,0,2.4-1.9,10.63,10.63,0,0,0,.48-3.54,10.47,10.47,0,0,0-.48-3.54A2.48,2.48,0,0,0,1254,1060.06Zm10.64-1.7h1.76v14.28h-2.34v-11.46a8.08,8.08,0,0,1-3.26,1.74v-2.32a8.48,8.48,0,0,0,2-.84A8.92,8.92,0,0,0,1264.64,1058.36Zm4.56,8.16h10.1v1.88h-10.1Zm18.7-8.44a6.4,6.4,0,0,1,4.16,1.32,5.27,5.27,0,0,1,1.88,3.44h-2.28a3.33,3.33,0,0,0-1.34-2.06,4.25,4.25,0,0,0-2.46-.64,3.9,3.9,0,0,0-3.38,1.54,6.22,6.22,0,0,0-1,3.84,6.36,6.36,0,0,0,1,3.88,4.73,4.73,0,0,0,6,.72,4.42,4.42,0,0,0,1.44-2.44h2.28a6.3,6.3,0,0,1-2.24,3.92,6.14,6.14,0,0,1-4,1.32,6.36,6.36,0,0,1-5.32-2.24,9.4,9.4,0,0,1,.06-10.34A6.24,6.24,0,0,1,1287.9,1058.08Zm13,0a4.43,4.43,0,0,1,3.9,2.08,11.46,11.46,0,0,1,0,10.68,4.48,4.48,0,0,1-3.9,2.08,4.43,4.43,0,0,1-3.9-2.08,11.46,11.46,0,0,1,0-10.68A4.39,4.39,0,0,1,1300.94,1058.08Zm0,2a2.45,2.45,0,0,0-2.4,1.9,10.47,10.47,0,0,0-.48,3.54,10.63,10.63,0,0,0,.48,3.54,2.47,2.47,0,0,0,2.4,1.9,2.51,2.51,0,0,0,2.4-1.9,10.63,10.63,0,0,0,.48-3.54,10.47,10.47,0,0,0-.48-3.54A2.48,2.48,0,0,0,1300.94,1060.06Zm12.22-2a5,5,0,0,1,3.42,1.2,4,4,0,0,1,1.32,3.1,5,5,0,0,1-1.4,3.38,18.44,18.44,0,0,1-3,2.3,7.16,7.16,0,0,0-2.66,2.52h7v2.06h-10a5.51,5.51,0,0,1,1.42-3.8,19.37,19.37,0,0,1,3.28-2.62,13.15,13.15,0,0,0,2-1.6,3.38,3.38,0,0,0,.94-2.26,2.3,2.3,0,0,0-.62-1.74,2.69,2.69,0,0,0-1.86-.56,2.3,2.3,0,0,0-2,.9,4.36,4.36,0,0,0-.72,2.54H1308a5.5,5.5,0,0,1,1.4-3.86A4.77,4.77,0,0,1,1313.16,1058.08Zm10.42.28h1.76v14.28H1323v-11.46a8.08,8.08,0,0,1-3.26,1.74v-2.32a8.48,8.48,0,0,0,2-.84A8.92,8.92,0,0,0,1323.58,1058.36Zm8.2,0h1.76v14.28h-2.34v-11.46a8.08,8.08,0,0,1-3.26,1.74v-2.32a8.48,8.48,0,0,0,2-.84A8.92,8.92,0,0,0,1331.78,1058.36Z"
                  transform="translate(-10 35)" fill="#c3717f"/>
        </g>
        <g id="seat_f_2bg4" data-name="seat f 2bg4">
            <rect id="Rectangle-11-13" data-name="Rectangle-11" x="1892" y="975" width="20" height="20" fill="#fff"/>
        </g>
        <g id="seat_f_2_d_bg4" data-name="seat f 2 d bg4">
            <rect id="Rectangle-29-Copy-99" x="1807" y="835" width="193" height="150" fill="#f3e6e5" stroke="#ecd5d4"
                  stroke-width="4"/>
            <path id="办公-2" data-name="办公"
                  d="M1897,872.72l1.84.74a14.89,14.89,0,0,1-2.54,5.48l-1.56-1.38A11.71,11.71,0,0,0,1897,872.72Zm4.16-7.1h2.12v3.64h6.28c0,1.44-.08,2.78-.12,4l1.36-.66q1.35,2.7,2.64,5.94l-1.92.94a55.13,55.13,0,0,0-2.12-5.12c-.08,1.36-.14,2.56-.22,3.6a13,13,0,0,1-1,4.62,2.53,2.53,0,0,1-2.22,1.36h-2.4l-.56-2c.68,0,1.32.08,1.92.08q1.44,0,1.92-2a57.89,57.89,0,0,0,.6-8.74h-4.22a22.36,22.36,0,0,1-1.7,7.82,10.94,10.94,0,0,1-5.16,5l-1.14-1.84a10.06,10.06,0,0,0,4.64-4.68,21.3,21.3,0,0,0,1.24-6.32h-4.68v-2h4.76Zm19,.12,1.94.8a23.43,23.43,0,0,1-5.56,9.56l-1.66-1.44A20.08,20.08,0,0,0,1920.08,865.74Zm7.8,10.6a42.5,42.5,0,0,1,3.64,6.88l-2,.88q-.39-1-.78-1.86c-3.44.52-7.3.9-11.56,1.18l-.36-2q2-.45,5.92-9.06l2.06.72a56.08,56.08,0,0,1-4.8,8.26c2.68-.18,5.32-.46,7.88-.86A36.81,36.81,0,0,0,1926,877Zm-.34-10.76a17.94,17.94,0,0,0,5.7,8.82l-1.5,1.74a19.43,19.43,0,0,1-6-9.56Z"
                  transform="translate(-10 35)" fill="#c3717f"/>
        </g>
        <g id="seat_f_2kaishuijan1" data-name="seat f 2kaishuijan1">
            <rect id="Rectangle-11-14" data-name="Rectangle-11" x="180" y="942" width="20" height="20" fill="#fff"/>
        </g>
        <g id="seat_f_2_d_kaishuijan1" data-name="seat f 2 d kaishuijan1">
            <rect id="Rectangle-29-Copy-40" x="100" y="919" width="90" height="66" fill="#f3e6e5" stroke="#ecd5d4"
                  stroke-width="4"/>
            <path id="开水间"
                  d="M128.1,907.58h15.84v2H140.8v4.6h4.14v2H140.8v8.58h-2.1v-8.58h-5.18a16.88,16.88,0,0,1-1.18,5,8.12,8.12,0,0,1-3.84,3.88l-1.14-1.78a7.22,7.22,0,0,0,3.26-3.52,16,16,0,0,0,.78-3.54h-4.32v-2h4.46c0-.12,0-.22,0-.34V909.6H128.1Zm5.58,2v4.26c0,.12,0,.22,0,.34h5v-4.6Zm13.64,1.84H154v1.64a16.36,16.36,0,0,1-6,10.08l-1.32-1.72a14.32,14.32,0,0,0,5.26-8h-4.58Zm15.28-1.86,1.68,1.26a30.67,30.67,0,0,1-4.7,4.7,19.93,19.93,0,0,0,5.84,5.94l-1.3,1.92a25.56,25.56,0,0,1-6.9-8.42v7.8q0,2.22-2,2.22h-2.66l-.46-2c.84.08,1.64.14,2.4.14.42,0,.64-.3.64-.86v-15.7h2.12v4.16a23.66,23.66,0,0,0,1.4,3.22A27.5,27.5,0,0,0,162.6,909.58Zm9.26,2.26H180v9.8h-8.12Zm6.18,8v-2.16h-4.22v2.16Zm-4.22-4H178v-2.16h-4.22Zm8.1,9.08h-1.6l-.56-2,1.74.06c.5,0,.76-.36.76-1.06V909.32h-7.44V907.4h9.48v15.14A2.11,2.11,0,0,1,181.92,924.92Zm-14.26-15h2v15.2h-2Zm3.54-3.54a20.27,20.27,0,0,1,2.42,3.56l-1.88,1a21.37,21.37,0,0,0-2.44-3.68Z"
                  transform="translate(-10 35)" fill="#be7a75"/>
        </g>
        <g id="seat_f_2lsj" data-name="seat f 2lsj">
            <rect id="Rectangle-11-15" data-name="Rectangle-11" x="60" y="972" width="20" height="20" fill="#fff"/>
        </g>
        <g id="seat_f_2_d_lsj" data-name="seat f 2 d lsj">
            <rect id="Rectangle-29-Copy-43" x="10" y="919" width="92" height="66" fill="#f3e6e5" stroke="#ecd5d4"
                  stroke-width="4"/>
            <path id="晾晒间"
                  d="M43.54,909.44h4.72a14,14,0,0,0-.66-1.64l2.08-.36a19.55,19.55,0,0,1,.66,2h4.84v1.94H43.54Zm1.24,3.2H54v6.14H50.44v5.3a1.72,1.72,0,0,1-2,1.92h-1.9l-.46-2a12.11,12.11,0,0,0,1.64.14.52.52,0,0,0,.6-.58v-4.78H44.78Zm7.16,4.26v-2.38H46.82v2.38Zm-6.38,2.82,1.7.84a19.29,19.29,0,0,1-3.24,4.6L42.4,924A16.18,16.18,0,0,0,45.56,919.72Zm7.28-.06a39.67,39.67,0,0,1,2.6,4.3l-1.58,1.1a36.11,36.11,0,0,0-2.62-4.42Zm-13.48-2.9v4.16h1.76v-4.16Zm1.76-1.88v-4.24H39.36v4.24Zm1.94-6.14v14.1h-3.7v1.34h-2V908.74ZM63,908.9V924H61v-1.22H59.3v1.7h-2V908.9Zm-3.7,11.94H61v-4.16H59.3Zm0-6.08H61v-4H59.3Zm15.38-2.24v13.54h-2v-.94H66.1v.94h-2V912.52H67v-2.36H63.7v-2H75.08v2h-3.3v2.36Zm-4.82-2.36h-1v2.36h1Zm-3.76,13h6.58v-2.72h-1.2c-1.06,0-1.58-.62-1.58-1.82v-4.14H68.84c-.14,3.24-.72,5.5-1.76,6.78l-1-.76Zm0-3.74a11.72,11.72,0,0,0,1.06-4.94H66.1Zm5.48-4.94v3.64c0,.36.14.54.44.54h.66v-4.18Zm10.28-1.64H90v9.8H81.86Zm6.18,8v-2.16H83.82v2.16Zm-4.22-4H88v-2.16H83.82Zm8.1,9.08h-1.6l-.56-2,1.74.06c.5,0,.76-.36.76-1.06V910.32H84.82V908.4H94.3v15.14A2.11,2.11,0,0,1,91.92,925.92Zm-14.26-15h2v15.2h-2Zm3.54-3.54a20.27,20.27,0,0,1,2.42,3.56l-1.88,1a21.37,21.37,0,0,0-2.44-3.68Z"
                  transform="translate(-10 35)" fill="#be7a75"/>
        </g>
        <g id="seat_f_2zhiliaoshi1" data-name="seat f 2zhiliaoshi1">
            <rect id="Rectangle-11-16" data-name="Rectangle-11" x="254" y="600" width="20" height="20" fill="#fff"/>
        </g>
        <g id="seat_f_2_d_zhiliaoshi1" data-name="seat f 2 d zhiliaoshi1">
            <rect id="Rectangle-29-Copy-47" x="242" y="531" width="112" height="74" fill="#f3e6e5" stroke="#ecd5d4"
                  stroke-width="4"/>
            <path id="治疗室-copy"
                  d="M280.9,525.74a26.78,26.78,0,0,1,3.66,3L283,530.28a21.66,21.66,0,0,0-3.62-3.12Zm-.62,4.7a22.49,22.49,0,0,1,3.42,3l-1.52,1.52a20.49,20.49,0,0,0-3.32-3.1Zm2.12,5.64,1.88.78a61.41,61.41,0,0,1-3,7.06L279.2,543A60.11,60.11,0,0,0,282.4,536.08Zm13.16-.86v8.88h-2V543h-6v1.08h-2v-8.88Zm-8,5.84h6v-3.94h-6Zm6.18-13.26a53,53,0,0,1,3.4,5.74l-2,1c-.24-.52-.48-1-.72-1.48-2.9.38-6.12.66-9.68.86l-.36-1.88c1-.2,2.56-2.38,4.54-6.5l2.1.72a41.16,41.16,0,0,1-3.6,5.68c2.06-.14,4.08-.34,6.06-.62-.54-.92-1.08-1.8-1.62-2.6Zm11.42,2.64h10.76v2a29.53,29.53,0,0,1-4.06,3.32v6.18a2,2,0,0,1-2.24,2.16h-2.5l-.5-1.84c.68,0,1.4.06,2.18.06a.89.89,0,0,0,1-1v-6.54a23.07,23.07,0,0,0,3.36-2.34h-8Zm-3.26,3.92c0-.22,0-.42,0-.6v-1l-1.52.68a26.21,26.21,0,0,0-1.68-3.86l1.7-.7a24.16,24.16,0,0,1,1.5,3.44V527h6.64a10.06,10.06,0,0,0-.54-1.24l2.14-.36c.16.48.3,1,.46,1.6h6.1v2H304v4.76q-.12,6.39-2.56,10.24l-1.6-1.42a14.25,14.25,0,0,0,1.88-5.92,22.89,22.89,0,0,1-2.46,1.8l-.62-2A23.24,23.24,0,0,0,301.86,534.36Zm19.34-2.84h-1.86v-4.28h7.5a12.91,12.91,0,0,0-.9-1.46l2.36-.4c.28.56.56,1.18.82,1.86h7.54v4.28H334.8v.92H332a29.35,29.35,0,0,1,3.58,3.36L334,537.36a14.64,14.64,0,0,0-1.16-1.44c-1.24.1-2.5.2-3.78.28v1.68h6.14v1.94h-6.14v1.84h7.7v1.94H319.24v-1.94h7.7v-1.84h-6.1v-1.94h6.1v-1.54c-1.76.1-3.56.2-5.4.28l-.48-1.8a2,2,0,0,0,.44-.18,8.79,8.79,0,0,0,2.44-2.2H321.2Zm5.14.92a19,19,0,0,1-1.92,2.32c2.3-.1,4.6-.24,6.88-.42l-1.2-1.08.84-.82Zm8.2-1.88V529.2H321.46v1.36Z"
                  transform="translate(-10 35)" fill="#be7a75"/>
        </g>
        <g id="seat_f_2zyzhzl" data-name="seat f 2zyzhzl">
            <rect id="Rectangle-11-17" data-name="Rectangle-11" x="242" y="486" width="20" height="20" fill="#d8d8d8"/>
        </g>
        <g id="seat_f_2_d_zyzhzl" data-name="seat f 2 d zyzhzl">
            <rect id="Rectangle-29-Copy-47-2" data-name="Rectangle-29-Copy-47" x="242" y="383" width="112" height="148"
                  fill="#f3e6e5" stroke="#ecd5d4" stroke-width="4"/>
            <path id="中医综-合治疗"
                  d="M286.92,398.48h2.16v3.42h7.1v9.76h-2.1v-1.1h-5v6.68h-2.16v-6.68h-5v1.1h-2.1V401.9h7.08Zm-5,10h5v-4.58h-5Zm7.14,0h5v-4.58h-5Zm17.08-3.58a8.76,8.76,0,0,1-1.66,1.94L303,405.46a9.93,9.93,0,0,0,2.7-4.1l1.9.52c-.14.42-.28.8-.42,1.16h7.48v1.9h-4.06v.78a12.25,12.25,0,0,1-.12,1.26h5.36v2H310a8.16,8.16,0,0,1-1.18,2.36,9.57,9.57,0,0,1-4.88,3l-1.14-1.76A8.78,8.78,0,0,0,307.3,410a6.3,6.3,0,0,0,.56-1H303v-2h5.44a9,9,0,0,0,.14-1.26v-.78Zm4.6,4.66a24.73,24.73,0,0,1,5,2.9l-1.14,1.74a21.9,21.9,0,0,0-4.92-3.1ZM300,399.2h16.1v2H302.06v13.24h14.72v2H300Zm25.08,13.08v2a28.16,28.16,0,0,1-5.88,1.94l-.28-2.08A29.91,29.91,0,0,0,325.12,412.28Zm-3.54-13.8,1.92.74A37,37,0,0,1,321,405.1c.58-.08,1.16-.2,1.72-.32.32-.68.64-1.42,1-2.2l1.94.72a49.83,49.83,0,0,1-3.78,6.76,24.51,24.51,0,0,0,3.36-1.12v1.86a26.84,26.84,0,0,1-5.68,1.48l-.52-1.86a3.42,3.42,0,0,0,.92-.56,22.28,22.28,0,0,0,1.94-3.28c-.84.12-1.72.28-2.6.44l-.5-1.78a2,2,0,0,0,.82-.72A47.46,47.46,0,0,0,321.58,398.48Zm15.06,2.06v4.12H334.9v1.26h-7.42v-1.26h-1.74v-4.12h4.2a17.8,17.8,0,0,0-.82-1.74l2.14-.36c.26.64.52,1.34.76,2.1ZM327.72,404h6.92v-1.58h-6.92Zm-.7,6.68,1.92.4a18.1,18.1,0,0,1-2.2,5.32L325,415.28A14.44,14.44,0,0,0,327,410.7Zm8.14-.16a34,34,0,0,1,2,4.9l-1.84.82a36.34,36.34,0,0,0-2-5.14Zm-4.7,6.36H328.7l-.44-2a10,10,0,0,0,1.5.14c.42,0,.64-.34.64-1v-4.6H326v-2h10.46v2h-4v5.12C332.4,416.14,331.74,416.9,330.46,416.9Zm-43.22,9.62h1.52a28,28,0,0,0,8.66,6.62l-1.14,2a25.8,25.8,0,0,1-3-1.84v1.38H282.7v-1.4c-1,.66-2,1.3-3.06,1.9l-1.12-2A28.86,28.86,0,0,0,287.24,426.52Zm-3.68,6.16h8.86a27,27,0,0,1-4.42-4.26A25,25,0,0,1,283.56,432.68Zm11,4v8.4h-2v-1h-9.16v1h-2v-8.4Zm-11.18,5.4h9.16v-3.44h-9.16Zm17.48-15.32a26.78,26.78,0,0,1,3.66,3L303,431.28a21.66,21.66,0,0,0-3.62-3.12Zm-.62,4.7a22.49,22.49,0,0,1,3.42,3l-1.52,1.52a20.49,20.49,0,0,0-3.32-3.1Zm2.12,5.64,1.88.78a61.41,61.41,0,0,1-3,7.06L299.2,444A60.11,60.11,0,0,0,302.4,437.08Zm13.16-.86v8.88h-2V444h-6v1.08h-2v-8.88Zm-8,5.84h6v-3.94h-6Zm6.18-13.26a53,53,0,0,1,3.4,5.74l-2,1c-.24-.52-.48-1-.72-1.48-2.9.38-6.12.66-9.68.86l-.36-1.88c1-.2,2.56-2.38,4.54-6.5l2.1.72a41.16,41.16,0,0,1-3.6,5.68c2.06-.14,4.08-.34,6.06-.62-.54-.92-1.08-1.8-1.62-2.6Zm11.42,2.64h10.76v2a29.53,29.53,0,0,1-4.06,3.32v6.18a2,2,0,0,1-2.24,2.16h-2.5l-.5-1.84c.68,0,1.4.06,2.18.06a.89.89,0,0,0,1-1v-6.54a23.07,23.07,0,0,0,3.36-2.34h-8Zm-3.26,3.92c0-.22,0-.42,0-.6v-1l-1.52.68a26.21,26.21,0,0,0-1.68-3.86l1.7-.7a24.16,24.16,0,0,1,1.5,3.44V428h6.64a10.06,10.06,0,0,0-.54-1.24l2.14-.36c.16.48.3,1,.46,1.6h6.1v2H324v4.76q-.12,6.39-2.56,10.24l-1.6-1.42a14.25,14.25,0,0,0,1.88-5.92,22.89,22.89,0,0,1-2.46,1.8l-.62-2A23.24,23.24,0,0,0,321.86,435.36Z"
                  transform="translate(-10 35)" fill="#be7a75"/>
        </g>
        <g id="seat_f_2lls" data-name="seat f 2lls">
            <rect id="Rectangle-11-18" data-name="Rectangle-11" x="242" y="346" width="20" height="20" fill="#d8d8d8"/>
        </g>
        <g id="seat_f_2_d_lls" data-name="seat f 2 d lls">
            <rect id="Rectangle-29-Copy-47-3" data-name="Rectangle-29-Copy-47" x="242" y="309" width="112" height="74"
                  fill="#f3e6e5" stroke="#ecd5d4" stroke-width="4"/>
            <path id="理疗室"
                  d="M286.08,302.2h10.24v9.7h-4.06v1.84h4.3v1.94h-4.3v1.86h5v2H285.1v-2h5.08v-1.86h-4.32v-1.94h4.32V311.9h-4.1Zm8.24,7.86v-2.12h-2.06v2.12Zm-4.14,0v-2.12h-2.1v2.12Zm-2.1-3.9h2.1V304h-2.1Zm4.18-2.12v2.12h2.06V304Zm-13,4.72h1.9v-4.08h-2.2v-2h6.5v2h-2.18v4.08h1.94v2h-1.94v3.78c.64-.22,1.26-.46,1.88-.72v2a45,45,0,0,1-5.88,1.82l-.52-2c.82-.14,1.62-.3,2.4-.5v-4.4h-1.9Zm25.9-2.32h10.76v2a29.53,29.53,0,0,1-4.06,3.32v6.18a2,2,0,0,1-2.24,2.16h-2.5l-.5-1.84c.68,0,1.4.06,2.18.06a.89.89,0,0,0,1-1v-6.54a23.07,23.07,0,0,0,3.36-2.34h-8Zm-3.26,3.92c0-.22,0-.42,0-.6v-1l-1.52.68a26.21,26.21,0,0,0-1.68-3.86l1.7-.7a24.16,24.16,0,0,1,1.5,3.44V303h6.64a10.06,10.06,0,0,0-.54-1.24l2.14-.36c.16.48.3,1,.46,1.6h6.1v2H304v4.76q-.12,6.39-2.56,10.24l-1.6-1.42a14.25,14.25,0,0,0,1.88-5.92,22.89,22.89,0,0,1-2.46,1.8l-.62-2A23.24,23.24,0,0,0,301.86,310.36Zm19.34-2.84h-1.86v-4.28h7.5a12.91,12.91,0,0,0-.9-1.46l2.36-.4c.28.56.56,1.18.82,1.86h7.54v4.28H334.8v.92H332a29.35,29.35,0,0,1,3.58,3.36L334,313.36a14.64,14.64,0,0,0-1.16-1.44c-1.24.1-2.5.2-3.78.28v1.68h6.14v1.94h-6.14v1.84h7.7v1.94H319.24v-1.94h7.7v-1.84h-6.1v-1.94h6.1v-1.54c-1.76.1-3.56.2-5.4.28l-.48-1.8a2,2,0,0,0,.44-.18,8.79,8.79,0,0,0,2.44-2.2H321.2Zm5.14.92a19,19,0,0,1-1.92,2.32c2.3-.1,4.6-.24,6.88-.42l-1.2-1.08.84-.82Zm8.2-1.88V305.2H321.46v1.36Z"
                  transform="translate(-10 35)" fill="#be7a75"/>
        </g>
        <g id="seat_f_2_d_bg2" data-name="seat f 2 d bg2">
            <polygon id="Rectangle-29-Copy-61-2" data-name="Rectangle-29-Copy-61"
                     points="817 710 1121 710 1121 842 817 842 817 710" fill="#f3e6e5" stroke="#ecd5d4"
                     stroke-width="4"/>
            <path id="办公-3" data-name="办公"
                  d="M962,738.72l1.84.74a14.89,14.89,0,0,1-2.54,5.48l-1.56-1.38A11.71,11.71,0,0,0,962,738.72Zm4.16-7.1h2.12v3.64h6.28c0,1.44-.08,2.78-.12,4l1.36-.66q1.35,2.7,2.64,5.94l-1.92.94a55.13,55.13,0,0,0-2.12-5.12c-.08,1.36-.14,2.56-.22,3.6a13,13,0,0,1-1,4.62,2.53,2.53,0,0,1-2.22,1.36h-2.4l-.56-2c.68,0,1.32.08,1.92.08q1.44,0,1.92-2a57.89,57.89,0,0,0,.6-8.74h-4.22a22.36,22.36,0,0,1-1.7,7.82,10.94,10.94,0,0,1-5.16,5l-1.14-1.84a10.06,10.06,0,0,0,4.64-4.68,21.3,21.3,0,0,0,1.24-6.32h-4.68v-2h4.76Zm19,.12,1.94.8a23.43,23.43,0,0,1-5.56,9.56l-1.66-1.44A20.08,20.08,0,0,0,985.08,731.74Zm7.8,10.6a42.5,42.5,0,0,1,3.64,6.88l-2,.88q-.39-1-.78-1.86c-3.44.52-7.3.9-11.56,1.18l-.36-2q2-.45,5.92-9.06l2.06.72a56.08,56.08,0,0,1-4.8,8.26c2.68-.18,5.32-.46,7.88-.86A36.81,36.81,0,0,0,991,743Zm-.34-10.76a17.94,17.94,0,0,0,5.7,8.82l-1.5,1.74a19.43,19.43,0,0,1-6-9.56Z"
                  transform="translate(-10 35)" fill="#be7a75"/>
        </g>
        <polygon id="Rectangle-29-Copy-61-3" data-name="Rectangle-29-Copy-61"
                 points="1520 710 1648 710 1648 842 1520 842 1520 710" fill="#eaeefb" stroke="#dbdee7"
                 stroke-width="4"/>
        <g id="seat_f_2gys" data-name="seat f 2gys">
            <rect id="Rectangle-11-19" data-name="Rectangle-11" x="1007" y="978" width="20" height="20" fill="#fff"/>
        </g>
        <g id="seat_f_2_d_gys" data-name="seat f 2 d gys">
            <polygon id="Rectangle-29-Copy-78" points="994 873 1073 873 1073 985 994 985 994 873" fill="#f3e6e5"
                     stroke="#ecd5d4" stroke-width="4"/>
            <path id="更衣"
                  d="M1024.3,885.2h17.42v2H1034v1.22h6.06v8.36h-6.36a8.42,8.42,0,0,1-.94,2.68,29.47,29.47,0,0,0,9.58,1.72l-.54,2a29.21,29.21,0,0,1-10.38-2.2c-1.44,1.12-3.72,1.84-6.8,2.18l-.92-1.92a12.72,12.72,0,0,0,5.64-1.3,17.49,17.49,0,0,1-2.82-1.92l1.6-1.1a16.93,16.93,0,0,0,2.68,1.68,5.66,5.66,0,0,0,.76-1.84h-5.66v-8.36h6v-1.22h-7.66Zm13.74,9.72V893.4h-4v.38l-.06,1.14Zm-6.14,0a10.88,10.88,0,0,0,.06-1.14v-.38H1028v1.52ZM1028,891.7H1032v-1.52H1028Zm6-1.52v1.52h4v-1.52Zm18.72-.58a18.54,18.54,0,0,1-2.74,4.24v6.44a35.93,35.93,0,0,0,4.56-1.68l.38,2a65.92,65.92,0,0,1-7.34,2.32l-.48-2a1.07,1.07,0,0,0,.8-1v-4a27.84,27.84,0,0,1-3,2.18l-1.12-1.8a17.22,17.22,0,0,0,6.8-6.86h-6.3v-2H1052a19.93,19.93,0,0,0-1.14-2.46l2.26-.36c.36.84.72,1.78,1.06,2.82h7.52v2h-6.9a17.19,17.19,0,0,0,1.42,4.64,14,14,0,0,0,3.46-3.16l1.48,1.48a13,13,0,0,1-4,3.32,16.53,16.53,0,0,0,4.84,4.88l-1.34,2.18A19.29,19.29,0,0,1,1052.76,889.6Z"
                  transform="translate(-10 35)" fill="#be7a75"/>
        </g>
        <polygon id="Rectangle-29-Copy-61-4" data-name="Rectangle-29-Copy-61"
                 points="1364 710 1520 710 1520 842 1364 842 1364 710" fill="#eaeefb" stroke="#dbdee7"
                 stroke-width="4"/>
        <g id="seat_f_2jcs2" data-name="seat f 2jcs2">
            <rect id="Rectangle-11-20" data-name="Rectangle-11" x="1153" y="978" width="20" height="20" fill="#fff"/>
        </g>
        <g id="seat_f_2_d_jcs2" data-name="seat f 2 d jcs2">
            <polygon id="Rectangle-29-Copy-78-2" data-name="Rectangle-29-Copy-78"
                     points="1131 873 1188 873 1188 985 1131 985 1131 873" fill="#f3e6e5" stroke="#ecd5d4"
                     stroke-width="4"/>
            <path id="检-查-室-2" data-name="检-查-室"
                  d="M1161.12,860.26h2.26v-3.68h2.06v3.68h1.82v2h-1.82V863c.8.8,1.58,1.66,2.36,2.6l-1.18,1.78c-.44-.84-.84-1.58-1.18-2.18V875h-2.06v-8.52a26.24,26.24,0,0,1-1.86,4.16l-.9-2.32a17.84,17.84,0,0,0,2.7-6h-2.2ZM1170,863a15.85,15.85,0,0,1-2,1.7l-1.14-1.76a16.1,16.1,0,0,0,5.28-6.36h1.92a15.26,15.26,0,0,0,5.4,6.36l-1.16,1.76a15.42,15.42,0,0,1-2-1.66v1H1170Zm5.36-.88a14.39,14.39,0,0,1-2.3-3.48,19.71,19.71,0,0,1-2.26,3.48Zm-8.08,10.38h6.84a51.09,51.09,0,0,0,1.94-7.58l2,.5a53.13,53.13,0,0,1-1.86,7.08H1179v2h-11.64Zm2.72-7a50.49,50.49,0,0,1,1.36,5.82l-1.82.48c-.36-2-.82-3.88-1.34-5.7Zm3-.72c.48,1.64.92,3.5,1.32,5.6l-1.9.5a55.49,55.49,0,0,0-1.2-5.5ZM1163.86,892h12.36v7.66h-12.36Zm10.32,5.82V896.7h-8.28v1.08Zm-8.28-2.84h8.28V893.8h-8.28Zm-4.16-8.78H1169v-1.62h2v1.62h7.28v1.92h-5.46a17.43,17.43,0,0,0,6.34,2.7l-.9,1.88q-5-1.71-7.26-4.44v3.16h-2v-3.16a17.51,17.51,0,0,1-7.14,4.44l-1.14-1.84a20.21,20.21,0,0,0,6.5-2.74h-5.5Zm-.4,14.5h17.34v1.9h-17.34Zm1.86,17.86h-1.86v-4.28h7.5a12.91,12.91,0,0,0-.9-1.46l2.36-.4c.28.56.56,1.18.82,1.86h7.54v4.28h-1.86v.92H1174a29.35,29.35,0,0,1,3.58,3.36l-1.54,1.56a14.64,14.64,0,0,0-1.16-1.44c-1.24.1-2.5.2-3.78.28v1.68h6.14v1.94h-6.14v1.84h7.7v1.94h-17.52v-1.94h7.7v-1.84h-6.1v-1.94h6.1v-1.54c-1.76.1-3.56.2-5.4.28l-.48-1.8a2,2,0,0,0,.44-.18,8.79,8.79,0,0,0,2.44-2.2h-2.74Zm5.14.92a19,19,0,0,1-1.92,2.32c2.3-.1,4.6-.24,6.88-.42l-1.2-1.08.84-.82Zm8.2-1.88V916.2h-13.08v1.36Z"
                  transform="translate(-10 35)" fill="#be7a75"/>
        </g>
        <g id="seat_f_2sj1" data-name="seat f 2sj1">
            <rect id="Rectangle-11-21" data-name="Rectangle-11" x="1094" y="978" width="20" height="20" fill="#fff"/>
        </g>
        <g id="seat_f_2_d_sj1" data-name="seat f 2 d sj1">
            <polygon id="Rectangle-29-Copy-78-3" data-name="Rectangle-29-Copy-78"
                     points="1074 873 1131 873 1131 985 1074 985 1074 873" fill="#f3e6e5" stroke="#ecd5d4"
                     stroke-width="4"/>
            <path id="示-教"
                  d="M1111.88,888.84h-2.58l-.44-2c.8.08,1.58.12,2.3.12.54,0,.82-.26.82-.76v-7.64h-7.6v-2.06h17.24v2.06h-7.52v8.18C1114.1,888.12,1113.36,888.84,1111.88,888.84Zm-4.68-8.46,2.06.46a22.47,22.47,0,0,1-3.44,7.16l-1.82-1.14A19.23,19.23,0,0,0,1107.2,880.38Zm11.26-.26a41.56,41.56,0,0,1,3.46,6.86l-1.9.86a44.93,44.93,0,0,0-3.44-7.08Zm-12.24-8.68h13.62v2h-13.62Zm9,35a13,13,0,0,1-.92,1.46l-1.24-1.56a19.61,19.61,0,0,0,2.42-7.8l2,.36q-.21,1.32-.48,2.52h4.84v2h-1a19.39,19.39,0,0,1-1.9,7.9,13.72,13.72,0,0,0,3.52,3.92l-1.06,1.84a14.34,14.34,0,0,1-3.58-3.94,15,15,0,0,1-4.3,3.94l-1.2-1.92a11.76,11.76,0,0,0,4.4-4A23.13,23.13,0,0,1,1115.18,906.44Zm3.68-3h-2.4s0,0,0,.08a19.24,19.24,0,0,0,1.3,5.54A17.75,17.75,0,0,0,1118.86,903.4ZM1105,900.24h2.36v-1.5h2v1.5h2v1.62c.52-.82,1-1.66,1.44-2.5l1.62.84a38.22,38.22,0,0,1-2,3.36h1v1.92h-2.46c-.38.44-.76.86-1.16,1.26h3v1.48a18.13,18.13,0,0,1-2.32,2.32v.5c1.28-.2,2.4-.44,3.34-.68v1.94a31.38,31.38,0,0,1-3.34.64v1.8a1.89,1.89,0,0,1-2.12,2.14h-1.8L1106,915a14.69,14.69,0,0,0,1.56.14q.9,0,.9-1v-1c-1.22.14-2.58.28-4.1.42l-.3-2c1.6-.08,3.08-.2,4.4-.32v-1.16a16.89,16.89,0,0,0,1.88-1.56h-2.6a21.36,21.36,0,0,1-2.76,1.84l-1.3-1.46c.46-.26.9-.52,1.34-.8v-1.42h2c.5-.42,1-.84,1.42-1.26h-4.28v-1.92h3.28v-1.48H1105Zm5.08,3.32c.38-.48.74-1,1.08-1.48h-1.82v1.48Z"
                  transform="translate(-10 35)" fill="#be7a75"/>
        </g>
        <g id="seat_f_2kf" data-name="seat f 2kf">
            <rect id="Rectangle-11-22" data-name="Rectangle-11" x="857" y="978" width="20" height="20" fill="#fff"/>
        </g>
        <g id="seat_f_2_d_kf" data-name="seat f 2 d kf">
            <polygon id="Rectangle-29-Copy-78-4" data-name="Rectangle-29-Copy-78"
                     points="816 873 919 873 919 985 816 985 816 873" fill="#f3e6e5" stroke="#ecd5d4" stroke-width="4"/>
            <path id="库房"
                  d="M865.06,884.44c.28.52.58,1.08.86,1.72H873v2H858.4v4.2a27.38,27.38,0,0,1-1.9,10.68l-1.78-1.58a22.93,22.93,0,0,0,1.56-9.1v-6.24h7.3a8.82,8.82,0,0,0-.86-1.32Zm-2,3.94,2,.46c-.12.4-.26.8-.38,1.2h7.42v1.82H864a21.44,21.44,0,0,1-1.46,2.88h2.82v-2.1h2.08v2.1h4.26v1.88h-4.26v1.6h5.74v1.9h-5.74v3h-2.08v-3h-6.9v-1.9h6.9v-1.6h-4.92l-.44-1.84a15.63,15.63,0,0,0,1.76-2.92h-2.56V890h3.32C862.7,889.5,862.88,888.94,863.08,888.38Zm19.12,7h-2.88v-2h5.32c-.16-.42-.32-.82-.5-1.18l2.22-.36c.16.46.32,1,.48,1.54h6.1v2h-8.62q-.06.72-.18,1.38h7.46a29.63,29.63,0,0,1-.44,5,1.55,1.55,0,0,1-1.06,1,16.68,16.68,0,0,1-3.72.26h-.2l-.56-1.88c.44,0,.86.06,1.3.06a8.34,8.34,0,0,0,1.88-.14.73.73,0,0,0,.48-.42c0-.2.1-.86.2-2h-5.9a9,9,0,0,1-4.3,4.42l-1.14-1.82A6.65,6.65,0,0,0,882.2,895.38Zm7.74-7.52H878.76v1.9h11.18Zm-11.18,3.82v1.46a18.74,18.74,0,0,1-2.6,10l-1.56-1.4a16.28,16.28,0,0,0,2.06-8.56v-7.22h6.54a11.36,11.36,0,0,0-.52-1.2l2.26-.36q.27.72.54,1.56H892v5.76Z"
                  transform="translate(-10 35)" fill="#be7a75"/>
        </g>
        <g id="seat_f_2bg3" data-name="seat f 2bg3">
            <rect id="Rectangle-11-23" data-name="Rectangle-11" x="1479" y="975" width="20" height="20" fill="#fff"/>
        </g>
        <g id="seat_f_2_d_bg3" data-name="seat f 2 d bg3">
            <rect id="Rectangle-29-Copy-78-5" data-name="Rectangle-29-Copy-78" x="1434" y="873" width="120" height="112"
                  fill="#f3e6e5" stroke="#ecd5d4" stroke-width="4"/>
            <path id="办公-4" data-name="办公"
                  d="M1482,891.72l1.84.74a14.89,14.89,0,0,1-2.54,5.48l-1.56-1.38A11.71,11.71,0,0,0,1482,891.72Zm4.16-7.1h2.12v3.64h6.28c0,1.44-.08,2.78-.12,4l1.36-.66q1.35,2.7,2.64,5.94l-1.92.94a55.13,55.13,0,0,0-2.12-5.12c-.08,1.36-.14,2.56-.22,3.6a13,13,0,0,1-1,4.62,2.53,2.53,0,0,1-2.22,1.36h-2.4l-.56-2c.68,0,1.32.08,1.92.08q1.44,0,1.92-2a57.89,57.89,0,0,0,.6-8.74h-4.22a22.36,22.36,0,0,1-1.7,7.82,10.94,10.94,0,0,1-5.16,5l-1.14-1.84a10.06,10.06,0,0,0,4.64-4.68,21.3,21.3,0,0,0,1.24-6.32h-4.68v-2h4.76Zm19,.12,1.94.8a23.43,23.43,0,0,1-5.56,9.56l-1.66-1.44A20.08,20.08,0,0,0,1505.08,884.74Zm7.8,10.6a42.5,42.5,0,0,1,3.64,6.88l-2,.88q-.39-1-.78-1.86c-3.44.52-7.3.9-11.56,1.18l-.36-2q2-.45,5.92-9.06l2.06.72a56.08,56.08,0,0,1-4.8,8.26c2.68-.18,5.32-.46,7.88-.86A36.81,36.81,0,0,0,1511,896Zm-.34-10.76a17.94,17.94,0,0,0,5.7,8.82l-1.5,1.74a19.43,19.43,0,0,1-6-9.56Z"
                  transform="translate(-10 35)" fill="#be7a75"/>
        </g>
        <g id="f2person-2" data-name="f2person">
            <circle id="Oval-Copy-2-2" data-name="Oval-Copy-2" cx="1764" cy="875" r="20" fill="#4287ff" stroke="#fff"
                    stroke-width="2"/>
            <path id="Combined-Shape-3" data-name="Combined-Shape"
                  d="M1773.91,835.53l1.43.81a.85.85,0,0,1,.43.68v2.25c0,.4-.17.73-.56.73a.65.65,0,0,1-.62-.73v-1.76l-1.67-1a1.63,1.63,0,0,1-.59.11h-.09v5.94a.74.74,0,0,1-1.48,0v-7a1.69,1.69,0,0,1-.09-.56v-3.33a1.67,1.67,0,1,1,3.33,0V832h0l1.86,1a.62.62,0,1,1-.57,1.09l-1.29-.69V835A1.55,1.55,0,0,1,1773.91,835.53Zm3.25,10.76-6.12.06V850h-7v-2.65h4.4v-3.63l6.12-.06v-3.47h5.3v-3.52h7.51v2.65h-4.87v3.53h-5.3Zm-4.83-16.48a1.67,1.67,0,0,1,0-3.33,1.67,1.67,0,1,1,0,3.33Z"
                  transform="translate(-10 35)" fill="#fff"/>
        </g>
        <g id="f2person-3" data-name="f2person">
            <circle id="Oval-Copy-2-3" data-name="Oval-Copy-2" cx="752" cy="725" r="20" fill="#4287ff" stroke="#fff"
                    stroke-width="2"/>
            <path id="Combined-Shape-4" data-name="Combined-Shape"
                  d="M761.91,685.53l1.43.81a.85.85,0,0,1,.43.68v2.25c0,.4-.17.73-.56.73a.65.65,0,0,1-.62-.73v-1.76l-1.67-1a1.63,1.63,0,0,1-.59.11h-.09v5.94a.74.74,0,0,1-1.48,0v-7a1.69,1.69,0,0,1-.09-.56v-3.33a1.67,1.67,0,1,1,3.33,0V682h0l1.86,1a.62.62,0,1,1-.57,1.09l-1.29-.69V685A1.55,1.55,0,0,1,761.91,685.53Zm3.25,10.76-6.12.06V700h-7v-2.65h4.4v-3.63l6.12-.06v-3.47h5.3v-3.52h7.51v2.65h-4.87v3.53h-5.3Zm-4.83-16.48a1.67,1.67,0,0,1,0-3.33,1.67,1.67,0,1,1,0,3.33Z"
                  transform="translate(-10 35)" fill="#fff"/>
        </g>
        <g id="f2person-4" data-name="f2person">
            <path id="Oval-Copy-3" data-name="Oval-Copy"
                  d="M542.35,743.48a19.2,19.2,0,1,0-19.2-19.2A19.2,19.2,0,0,0,542.35,743.48Z"
                  transform="translate(-10 35)" fill="#4287ff" stroke="#fff" stroke-width="2"/>
            <path id="Combined-Shape-5" data-name="Combined-Shape"
                  d="M534.31,734.57a.8.8,0,0,1-.8-.8V714.42a.8.8,0,0,1,.8-.8h1.38v21Zm14.83,0v-21h1.38a.8.8,0,0,1,.8.8v19.35a.8.8,0,0,1-.8.8ZM536.4,718H542v12.51h-5.6Zm6.4,0h5.6v12.51h-5.6Zm-.31-4.35,2.39,2.56h-4.8Zm-.11,20.8L540,731.84h4.8Z"
                  transform="translate(-10 35)" fill="#fff"/>
        </g>
        <g id="f2person-5" data-name="f2person">
            <circle id="Oval-Copy-2-4" data-name="Oval-Copy-2" cx="100" cy="95" r="20" fill="#4287ff" stroke="#fff"
                    stroke-width="2"/>
            <path id="Combined-Shape-6" data-name="Combined-Shape"
                  d="M109.91,55.53l1.43.81a.85.85,0,0,1,.43.68v2.25c0,.4-.17.73-.56.73a.65.65,0,0,1-.62-.73V57.51l-1.67-.95a1.63,1.63,0,0,1-.59.11h-.09V62.6a.74.74,0,0,1-1.48,0v-7a1.69,1.69,0,0,1-.09-.56V51.67a1.67,1.67,0,1,1,3.33,0V52h0l1.86,1a.62.62,0,0,1-.57,1.09L110,53.34V55A1.55,1.55,0,0,1,109.91,55.53Zm3.25,10.76-6.12.06V70h-7V67.35h4.4V63.72l6.12-.06V60.19h5.3V56.67h7.51v2.65h-4.87v3.53h-5.3Zm-4.83-16.48a1.67,1.67,0,0,1,0-3.33,1.67,1.67,0,1,1,0,3.33Z"
                  transform="translate(-10 35)" fill="#fff"/>
        </g>
        <g id="f2person-6" data-name="f2person">
            <path id="Oval-Copy-4" data-name="Oval-Copy"
                  d="M320.35,79.48a19.2,19.2,0,1,0-19.2-19.2A19.2,19.2,0,0,0,320.35,79.48Z"
                  transform="translate(-10 35)" fill="#4287ff" stroke="#fff" stroke-width="2"/>
            <path id="Combined-Shape-7" data-name="Combined-Shape"
                  d="M312.31,70.57a.8.8,0,0,1-.8-.8V50.42a.8.8,0,0,1,.8-.8h1.38V70.57Zm14.83,0V49.62h1.38a.8.8,0,0,1,.8.8V69.77a.8.8,0,0,1-.8.8ZM314.4,54H320V66.47h-5.6Zm6.4,0h5.6V66.46h-5.6Zm-.31-4.35,2.39,2.56h-4.8Zm-.11,20.8L318,67.84h4.8Z"
                  transform="translate(-10 35)" fill="#fff"/>
        </g>
        <g id="f2person-7" data-name="f2person">
            <path id="Oval-Copy-5" data-name="Oval-Copy"
                  d="M542.35,919.48a19.2,19.2,0,1,0-19.2-19.2A19.2,19.2,0,0,0,542.35,919.48Z"
                  transform="translate(-10 35)" fill="#4287ff" stroke="#fff" stroke-width="2"/>
            <path id="Combined-Shape-8" data-name="Combined-Shape"
                  d="M534.31,910.57a.8.8,0,0,1-.8-.8V890.42a.8.8,0,0,1,.8-.8h1.38v21Zm14.83,0v-21h1.38a.8.8,0,0,1,.8.8v19.35a.8.8,0,0,1-.8.8ZM536.4,894H542v12.51h-5.6Zm6.4,0h5.6v12.51h-5.6Zm-.31-4.35,2.39,2.56h-4.8Zm-.11,20.8L540,907.84h4.8Z"
                  transform="translate(-10 35)" fill="#fff"/>
        </g>
        <g id="f2person-8" data-name="f2person">
            <path id="Oval-Copy-6" data-name="Oval-Copy"
                  d="M2092.35,1087.48a19.2,19.2,0,1,0-19.2-19.2A19.2,19.2,0,0,0,2092.35,1087.48Z"
                  transform="translate(-10 35)" fill="#4287ff" stroke="#fff" stroke-width="2"/>
            <path id="Combined-Shape-9" data-name="Combined-Shape"
                  d="M2084.31,1078.57a.8.8,0,0,1-.8-.8v-19.35a.8.8,0,0,1,.8-.8h1.38v21Zm14.83,0v-21h1.38a.8.8,0,0,1,.8.8v19.35a.8.8,0,0,1-.8.8ZM2086.4,1062h5.6v12.51h-5.6Zm6.4,0h5.6v12.51h-5.6Zm-.31-4.35,2.39,2.56h-4.8Zm-.11,20.8-2.41-2.56h4.8Z"
                  transform="translate(-10 35)" fill="#fff"/>
        </g>
        <path id="Line-7" d="M1649,950h164" transform="translate(-10 35)" fill="none" stroke="#dbdee7"
              stroke-linecap="square" stroke-width="4"/>
        <g id="seat_f_2gxbyz" data-name="seat f 2gxbyz">
            <rect id="Rectangle-11-24" data-name="Rectangle-11" x="1822" y="1025" width="20" height="20"
                  fill="#d8d8d8"/>
        </g>
        <g id="seat_f_2_d_gxbyz" data-name="seat f 2 d gxbyz">
            <rect id="Rectangle-29-Copy-92-2" data-name="Rectangle-29-Copy-92" x="1741" y="1027" width="293"
                  height="146" fill="#fbd3da" stroke="#f0b9c2" stroke-width="4"/>
            <path id="干细胞移植病房"
                  d="M1830.5,1057.26h15v2h-6.42v5h7.88v2h-7.88v8.46h-2.12v-8.46H1829v-2h7.94v-5h-6.44Zm24.6,13v2a30.59,30.59,0,0,1-6,1.78l-.28-2A32.25,32.25,0,0,0,1855.1,1070.26Zm-3.52-14.12,1.9.76a35.27,35.27,0,0,1-2.46,5.8c.52-.08,1.06-.16,1.58-.26.32-.7.64-1.44,1-2.22l1.82.68a53.35,53.35,0,0,1-3.6,6.74,30.81,30.81,0,0,0,3.28-.88v1.84a30.72,30.72,0,0,1-5.62,1.28l-.5-1.8a3.49,3.49,0,0,0,.88-.56,17.65,17.65,0,0,0,1.94-3.32c-.84.16-1.7.3-2.6.46l-.5-1.78a2,2,0,0,0,.82-.72A45.08,45.08,0,0,0,1851.58,1056.14Zm8.68,3.42h-2.58v5h2.58Zm0,6.86h-2.58v5.18h2.58Zm1.88,5.18h2.5v-5.18h-2.5Zm0-7.06h2.5v-5h-2.5Zm2.5,9h-7v1.12h-1.9v-17h10.82v17h-2Zm7.14-10v2.82h1.88v-2.82Zm1.88-1.86v-2.86h-1.88v2.86Zm-1.94,6.56a16.85,16.85,0,0,1-1.56,6.58l-1.54-1.42a16.59,16.59,0,0,0,1.18-6.56v-9.94h5.88v4.94a13.5,13.5,0,0,0,2.7-5.62l2,.24a19.86,19.86,0,0,1-.62,2h6.5c-.08,5.26-.18,8.32-.28,9.16a3,3,0,0,1-.68,1.74,3.74,3.74,0,0,1-2.34.48h-.5l-.44-1.42h-3.14v3.06c0,.68.24,1,.76,1H1884a1.06,1.06,0,0,0,1-.52,8.65,8.65,0,0,0,.36-2.16l1.84.58a17.81,17.81,0,0,1-.48,2.58,2,2,0,0,1-2,1.34h-5.82c-1.26,0-1.88-.7-1.88-2.1v-9l-.7.74-.58-.76v9.44a1.74,1.74,0,0,1-1.94,2h-1.58l-.5-1.9a13.78,13.78,0,0,0,1.48.1c.34,0,.52-.3.52-.9v-3.72Zm10.9-.32,1,0c.24,0,.38-.14.44-.4a10.51,10.51,0,0,0,.1-1.26q0-.9.06-5.88h-5.26a15.41,15.41,0,0,1-1.26,2h5Zm-3.72-1.3h1.82v-2.38h-1.82Zm10.56-7.2-.42-2a29.16,29.16,0,0,0,6.42-1.18l.74,2c-.76.22-1.56.42-2.4.58v2.7h2.42v2h-2.42v.78a35.77,35.77,0,0,1,2.76,2.34l-.7,1.06c3.24-.8,5.5-2.08,6.74-3.84l1.9.82a10.72,10.72,0,0,1-.68,1h3.42v1.74c-1.24,3.44-4.82,5.88-10.78,7.36l-1.1-2a24,24,0,0,0,5.16-1.56l-1.4-1.4,1.46-1a14.79,14.79,0,0,1,1.66,1.5,8.42,8.42,0,0,0,2.7-2.76h-3.16a16,16,0,0,1-4.82,2.12l-1.22-1.78-.34.52c-.62-.88-1.16-1.62-1.6-2.18v8.48h-2v-8a20.26,20.26,0,0,1-2.34,4.3l-.9-2.28a14.49,14.49,0,0,0,3-5.14h-2.58v-2h2.82v-2.36C1891,1059.2,1890.24,1059.28,1889.46,1059.36Zm13-2.78c-.2.36-.4.68-.6,1h4v1.72c-1.14,3-4,5.18-8.72,6.46l-1.06-1.54a18.5,18.5,0,0,0,3.66-1.32,8,8,0,0,0-1.1-1.36l1.46-1.06a8.46,8.46,0,0,1,1.12,1.54,9.42,9.42,0,0,0,2.52-2.6h-3.4a13.67,13.67,0,0,1-3,2.32l-1.42-1.7a13.91,13.91,0,0,0,4.44-3.92Zm10.82,9.3v8.8h-2V1066a23.75,23.75,0,0,1-1.76,4l-.9-2.3a17.65,17.65,0,0,0,2.62-5.8H1909v-2h2.2v-3.7h2v3.7h1.8v2h-1.8v1.4c.74.9,1.48,1.88,2.24,3l-1.18,1.74C1913.92,1067.18,1913.58,1066.48,1913.26,1065.88Zm2-8.12h4.8l.12-1.68,2.06.28-.12,1.4h4.7v1.92h-4.88l-.18,1.3h3.86v11.28h1.6v1.94h-12.68v-1.94h1.9V1061h3.26l.18-1.3h-4.62Zm3.2,14.5h5.12v-1.18h-5.12Zm0-2.84h5.12v-1.1h-5.12Zm0-2.74h5.12v-1.08h-5.12Zm0-2.72h5.12v-1.14h-5.12Zm22.14,4.6a8.3,8.3,0,0,1-2.54,3.14l-1.24-1.5a6.93,6.93,0,0,0,2.44-3.64l.08-.34h-2.72v8.44h-2v-10.32h5c0-.5.08-1,.1-1.54h-5.44v-1.92h12.36v1.92h-5c0,.54,0,1.06-.08,1.54h4.7v7.88c0,1.54-.68,2.32-2,2.32h-2l-.52-1.94,1.9.1c.46,0,.7-.32.7-.92v-5.56h-3c0,.24-.1.46-.14.68a18.44,18.44,0,0,1,2.92,2.82l-1.14,1.72A18.83,18.83,0,0,0,1940.58,1068.56Zm-8.76-3.76c0-.16,0-.28,0-.4v-1.26l-1.6.7a24.88,24.88,0,0,0-1.64-3.84l1.8-.76a24.17,24.17,0,0,1,1.44,3.38v-5.08h6.56a9.2,9.2,0,0,0-.56-1.18l2.12-.36c.18.46.36,1,.56,1.54h6.24v2h-12.92v4.9q-.12,6.39-2.52,10.24l-1.56-1.38a14.91,14.91,0,0,0,1.92-6.24,23.88,23.88,0,0,1-2.44,1.68l-.58-2A21.34,21.34,0,0,0,1931.82,1064.8Zm24.34,2.22h-2.88v-2h5.32c-.16-.42-.32-.82-.5-1.18l2.22-.36c.16.46.32,1,.48,1.54h6.1v2h-8.62q-.06.72-.18,1.38h7.46a29.63,29.63,0,0,1-.44,5,1.55,1.55,0,0,1-1.06,1,16.68,16.68,0,0,1-3.72.26h-.2l-.56-1.88c.44,0,.86.06,1.3.06a8.34,8.34,0,0,0,1.88-.14.73.73,0,0,0,.48-.42c0-.2.1-.86.2-2h-5.9a9,9,0,0,1-4.3,4.42l-1.14-1.82A6.65,6.65,0,0,0,1956.16,1067Zm7.74-7.52h-11.18v1.9h11.18Zm-11.18,3.82v1.46a18.74,18.74,0,0,1-2.6,10l-1.56-1.4a16.28,16.28,0,0,0,2.06-8.56v-7.22h6.54a11.36,11.36,0,0,0-.52-1.2l2.26-.36q.27.72.54,1.56H1966v5.76Z"
                  transform="translate(-10 35)" fill="#c3717f"/>
        </g>
    </g>
    <path id="motionPath2" d="M0,0" transform="translate(-10 35)" fill="#4287ff"/>
</svg>